# Blender v2.79 (sub 0) OBJ File: ''
# www.blender.org
mtllib cabezaConejo.mtl
o Cube_Cube.001
v 0.209712 0.221941 1.014553
v 0.242587 0.414146 1.012235
v 0.099782 0.200626 0.699475
v 0.145259 0.466508 0.696268
v 0.765218 0.126901 1.010175
v 0.798093 0.319107 1.007857
v 0.868223 0.069157 0.693418
v 0.913700 0.335038 0.690211
v 0.311605 0.164386 0.697805
v 0.357082 0.430268 0.694599
v 0.362839 0.195743 1.013346
v 0.395714 0.387948 1.011028
v 0.635391 0.382653 0.692405
v 0.564028 0.161322 1.011760
v 0.589914 0.116772 0.695612
v 0.596904 0.353528 1.009442
v 0.100576 0.201482 0.878326
v 0.146053 0.467364 0.875119
v 0.869017 0.070013 0.872270
v 0.914494 0.335894 0.869063
v 0.357877 0.431124 0.873450
v 0.312400 0.165242 0.876657
v 0.636186 0.383509 0.871256
v 0.590709 0.117627 0.874463
v 0.569850 -0.587398 -0.417373
v 0.198467 -0.297770 0.889584
v 0.450864 0.586715 -0.331523
v 0.155090 0.227043 0.747495
v 0.674235 -0.715137 0.000000
v 0.596977 0.725361 0.055647
v 0.687672 0.000000 -0.703335
v 0.272692 -0.007130 0.932355
v 0.984337 0.000000 0.000000
v 0.687671 0.000000 0.703335
v 0.450863 0.586715 0.563202
v 0.448068 -0.562962 0.834707
v 0.207309 -0.006374 1.055930
v 0.116330 0.174786 1.045919
v 0.112121 -0.180101 1.029789
v 0.155007 0.229460 0.921875
v 0.272610 -0.004713 0.982595
v 0.165444 -0.229998 0.914761
v 0.626635 -0.656888 0.295967
v 0.537359 0.691779 0.205247
v 0.849057 0.000000 0.320721
v 0.277094 -0.651267 -0.553635
v 0.277331 -0.629072 0.847107
v 0.217600 0.650926 -0.511764
v 0.217600 0.650926 0.627603
v 0.329286 -0.857569 -0.000000
v 0.375470 0.817031 0.055813
v 0.336004 0.000000 -0.851667
v 0.100913 -0.331717 0.922002
v 0.069942 0.243468 0.834439
v 0.102340 -0.001519 1.187365
v 0.048466 -0.203416 1.070776
v 0.050458 0.159591 1.113180
v 0.074965 -0.259480 0.970335
v 0.069859 0.219842 1.008820
v 0.305486 -0.763495 0.305280
v 0.344985 0.761034 0.224248
v 0.330339 0.857569 0.000000
v 0.676342 0.715137 0.000000
v 0.573523 0.656577 0.256820
v 0.278930 0.763340 0.286187
v 0.431954 0.948698 0.074498
v 0.687458 0.854416 0.092126
v 0.582415 0.938001 0.254295
v 0.500742 0.965242 0.257188
v 0.487994 1.100640 0.090773
v 0.778639 0.993391 0.110825
v 0.631196 1.019846 0.279974
v 0.449678 1.064815 0.281827
v 0.955712 2.019396 0.511096
v 1.084438 1.976812 0.509502
v 0.806451 1.986827 0.187925
v 1.297234 1.805726 0.221786
v 1.064710 1.814388 0.556553
v 0.741729 1.926684 0.571719
v 1.234479 2.042804 0.375500
v 0.967504 2.141361 0.364495
v 0.398272 0.917179 0.238073
v 0.619906 0.843257 0.230220
v 0.526518 1.039268 0.279136
v 0.701794 0.980726 0.272894
v 0.932327 2.108145 0.486207
v 1.163908 2.030926 0.481644
v 0.835765 1.879108 0.564676
v 1.167454 1.784691 0.556635
v 0.526226 1.042786 0.215672
v 0.630904 1.023474 0.217902
v 0.835521 1.897978 0.460524
v 1.064466 1.832841 0.457066
v 0.500450 0.967376 0.199094
v 0.582123 0.939998 0.198162
v 0.955420 2.037032 0.376701
v 1.084146 1.994444 0.378166
v 0.290717 -0.704837 0.694202
v 0.096007 -0.262746 0.840114
v 0.050289 -0.651993 0.836561
v 0.570163 -0.587675 0.649311
v 0.059364 -0.354885 0.902559
v 0.206901 -0.233401 0.779112
v 0.045835 -0.527777 0.903176
v 0.317457 0.424488 0.646326
v 0.500498 -0.003216 0.806633
v 0.434709 -0.421068 0.766249
v 0.151000 0.467145 0.720895
v 0.207987 -0.495250 0.928881
v 0.350842 -0.428616 0.894336
v -0.209712 0.221941 1.014553
v -0.242587 0.414146 1.012235
v -0.099782 0.200626 0.699475
v -0.145259 0.466508 0.696268
v -0.765218 0.126901 1.010175
v -0.798093 0.319107 1.007857
v -0.868223 0.069157 0.693418
v -0.913700 0.335038 0.690211
v -0.311605 0.164386 0.697805
v -0.357082 0.430268 0.694599
v -0.362839 0.195743 1.013346
v -0.395714 0.387948 1.011028
v -0.635391 0.382653 0.692405
v -0.564028 0.161322 1.011760
v -0.589914 0.116772 0.695612
v -0.596904 0.353528 1.009442
v -0.100576 0.201482 0.878326
v -0.146053 0.467364 0.875119
v -0.869017 0.070013 0.872270
v -0.914494 0.335894 0.869063
v -0.357877 0.431124 0.873450
v -0.312400 0.165242 0.876657
v -0.636186 0.383509 0.871256
v -0.590709 0.117627 0.874463
v -0.569850 -0.587398 -0.417373
v -0.198467 -0.297770 0.889584
v -0.450864 0.586715 -0.331523
v -0.155090 0.227043 0.747495
v 0.000000 -0.715137 -0.689898
v 0.000000 -0.292134 0.901729
v 0.000000 0.715137 -0.692005
v 0.000000 0.259892 0.921383
v -0.674235 -0.715137 0.000000
v -0.596977 0.725361 0.055647
v 0.000000 1.000000 0.000000
v 0.000000 -1.000000 -0.000000
v -0.687672 0.000000 -0.703335
v -0.272692 -0.007130 0.932355
v 0.000000 0.000000 -1.000000
v 0.000000 0.210224 1.095764
v -0.984337 0.000000 0.000000
v 0.000000 -0.747136 0.709601
v -0.687671 0.000000 0.703335
v -0.450863 0.586715 0.563202
v 0.000000 0.715137 0.692005
v -0.448068 -0.562962 0.834707
v 0.000000 0.004870 1.223374
v 0.000000 -0.226731 1.087975
v 0.000000 0.144397 1.180442
v -0.207309 -0.006374 1.055930
v -0.116330 0.174786 1.045919
v -0.112121 -0.180101 1.029789
v 0.000000 -0.289555 1.026159
v -0.155007 0.229460 0.921875
v -0.272610 -0.004713 0.982595
v -0.165444 -0.229998 0.914761
v -0.626635 -0.656888 0.295967
v -0.537359 0.691779 0.205247
v 0.000000 0.870103 0.315554
v 0.000000 -0.870103 0.314593
v -0.849057 0.000000 0.320721
v -0.277094 -0.651267 -0.553635
v -0.277331 -0.629072 0.847107
v -0.217600 0.650926 -0.511764
v -0.217600 0.650926 0.627603
v -0.329286 -0.857569 -0.000000
v -0.375470 0.817031 0.055813
v -0.336004 0.000000 -0.851667
v -0.100913 -0.331717 0.922002
v -0.069942 0.243468 0.834439
v -0.102340 -0.001519 1.187365
v -0.048466 -0.203416 1.070776
v -0.050458 0.159591 1.113180
v -0.074965 -0.259480 0.970335
v -0.069859 0.219842 1.008820
v -0.305486 -0.763495 0.305280
v -0.344985 0.761034 0.224248
v -0.330339 0.857569 0.000000
v -0.676342 0.715137 0.000000
v -0.573523 0.656577 0.256820
v -0.278930 0.763340 0.286187
v -0.431954 0.948698 0.074498
v -0.687458 0.854416 0.092126
v -0.582415 0.938001 0.254295
v -0.500742 0.965242 0.257188
v -0.487994 1.100640 0.090773
v -0.778639 0.993391 0.110825
v -0.631196 1.019846 0.279974
v -0.449678 1.064815 0.281827
v -0.955712 2.019396 0.511096
v -1.084438 1.976812 0.509502
v -0.806451 1.986827 0.187925
v -1.297234 1.805726 0.221786
v -1.064710 1.814388 0.556553
v -0.741729 1.926684 0.571719
v -1.234479 2.042804 0.375500
v -0.967504 2.141361 0.364495
v -0.398272 0.917179 0.238073
v -0.619906 0.843257 0.230220
v -0.526518 1.039268 0.279136
v -0.701794 0.980726 0.272894
v -0.932327 2.108145 0.486207
v -1.163908 2.030926 0.481644
v -0.835765 1.879108 0.564676
v -1.167454 1.784691 0.556635
v -0.526226 1.042786 0.215672
v -0.630904 1.023474 0.217902
v -0.835521 1.897978 0.460524
v -1.064466 1.832841 0.457066
v -0.500450 0.967376 0.199094
v -0.582123 0.939998 0.198162
v -0.955420 2.037032 0.376701
v -1.084146 1.994444 0.378166
v -0.290717 -0.704837 0.694202
v -0.096007 -0.262746 0.840114
v -0.050289 -0.651993 0.836561
v -0.570163 -0.587675 0.649311
v -0.059364 -0.354885 0.902559
v -0.206901 -0.233401 0.779112
v -0.045835 -0.527777 0.903176
v -0.317457 0.424488 0.646326
v -0.500498 -0.003216 0.806633
v 0.000000 0.509802 0.795465
v -0.434709 -0.421068 0.766249
v -0.151000 0.467145 0.720895
v -0.207987 -0.495250 0.928881
v 0.000000 -0.545501 0.834222
v -0.350842 -0.428616 0.894336
vn -0.0097 -0.0104 -0.9999
vn 0.8301 0.4050 0.3833
vn 0.4214 -0.3838 -0.8216
vn 0.3635 0.8624 0.3523
vn 0.2449 -0.9435 0.2232
vn 0.3716 -0.8581 -0.3545
vn 0.4326 0.8198 -0.3752
vn 0.7731 0.4509 -0.4460
vn 0.8643 -0.3609 -0.3504
vn 0.5008 0.4060 -0.7645
vn 0.9163 -0.2691 0.2966
vn 0.3074 0.3850 0.8702
vn -0.0093 -0.5005 0.8657
vn 0.3753 0.2396 0.8954
vn 0.4953 -0.1703 0.8519
vn 0.8885 -0.3502 0.2966
vn 0.3489 -0.8770 0.3303
vn 0.3688 0.8603 0.3519
vn 0.8425 0.3763 0.3855
vn 0.7935 -0.5476 0.2656
vn -0.9279 0.3633 -0.0836
vn 0.3406 -0.9010 0.2687
vn 0.4178 0.3520 0.8376
vn 0.2689 -0.3132 0.9108
vn 0.4569 0.5383 -0.7081
vn 0.4231 0.7709 -0.4760
vn 0.3555 -0.8647 -0.3548
vn 0.3578 -0.9139 0.1918
vn 0.3441 0.8738 0.3436
vn 0.3993 -0.4370 -0.8060
vn 0.3579 0.8674 0.3458
vn 0.3546 0.8713 0.3393
vn 0.3492 0.8714 0.3445
vn 0.3535 0.8674 0.3503
vn -0.9265 0.3564 -0.1204
vn 0.0183 -0.1330 0.9909
vn 0.0960 0.1539 -0.9834
vn -0.6904 0.7234 -0.0028
vn 0.7673 -0.5526 0.3253
vn 0.0948 0.0714 -0.9929
vn 0.3112 0.8944 0.3214
vn 0.0959 0.0744 -0.9926
vn 0.9074 0.0566 0.4165
vn -0.9308 0.3491 -0.1086
vn 0.7847 -0.5484 0.2891
vn 0.2608 0.5833 -0.7692
vn -0.0547 -0.2662 0.9624
vn -0.0541 -0.2676 0.9620
vn 0.1170 0.3032 0.9457
vn 0.1572 0.2601 0.9527
vn -0.0770 -0.2910 0.9536
vn -0.0726 -0.2964 0.9523
vn 0.1078 0.2806 0.9538
vn -0.3117 -0.9420 -0.1243
vn 0.1124 -0.8546 0.5070
vn 0.0469 0.5475 0.8355
vn -0.5813 -0.1081 0.8065
vn 0.7997 0.3203 0.5079
vn 0.3887 -0.8291 0.4019
vn 0.0058 0.8218 0.5698
vn 0.5843 0.6864 0.4330
vn -0.7506 -0.3420 0.5653
vn 0.1842 0.2004 0.9622
vn 0.6142 0.2698 0.7416
vn 0.1582 -0.3138 0.9362
vn 0.5541 0.1010 0.8263
vn -0.2069 -0.0358 0.9777
vn 0.2088 0.5251 0.8250
vn 0.0097 -0.0104 -0.9999
vn -0.8301 0.4050 0.3833
vn -0.4214 -0.3838 -0.8216
vn -0.3635 0.8624 0.3523
vn -0.2449 -0.9435 0.2232
vn -0.3716 -0.8581 -0.3545
vn -0.4326 0.8198 -0.3752
vn -0.7731 0.4509 -0.4460
vn -0.8643 -0.3609 -0.3504
vn -0.5008 0.4060 -0.7645
vn -0.9163 -0.2691 0.2966
vn -0.3074 0.3850 0.8702
vn 0.0093 -0.5005 0.8657
vn -0.3753 0.2396 0.8954
vn -0.4953 -0.1703 0.8519
vn -0.8885 -0.3502 0.2966
vn -0.3489 -0.8770 0.3303
vn -0.3688 0.8603 0.3519
vn -0.8425 0.3763 0.3855
vn -0.7935 -0.5476 0.2656
vn 0.9279 0.3633 -0.0836
vn -0.3406 -0.9010 0.2687
vn -0.4178 0.3520 0.8376
vn -0.2689 -0.3132 0.9108
vn -0.4569 0.5383 -0.7081
vn -0.4231 0.7709 -0.4760
vn -0.3555 -0.8647 -0.3548
vn -0.3578 -0.9139 0.1918
vn -0.3441 0.8738 0.3436
vn -0.3993 -0.4370 -0.8060
vn -0.3579 0.8674 0.3458
vn -0.3546 0.8713 0.3393
vn -0.3492 0.8714 0.3445
vn -0.3535 0.8674 0.3503
vn 0.9265 0.3564 -0.1204
vn -0.0183 -0.1330 0.9909
vn -0.0960 0.1539 -0.9834
vn 0.6904 0.7234 -0.0028
vn -0.7673 -0.5526 0.3253
vn -0.0948 0.0714 -0.9929
vn -0.3112 0.8944 0.3214
vn -0.0959 0.0744 -0.9926
vn -0.9074 0.0566 0.4165
vn 0.9308 0.3491 -0.1086
vn -0.7847 -0.5484 0.2891
vn -0.2608 0.5833 -0.7692
vn 0.0547 -0.2662 0.9624
vn 0.0541 -0.2676 0.9620
vn -0.1170 0.3032 0.9457
vn -0.1572 0.2601 0.9527
vn 0.0770 -0.2910 0.9536
vn 0.0726 -0.2964 0.9523
vn -0.1078 0.2806 0.9538
vn 0.3117 -0.9420 -0.1243
vn -0.1124 -0.8546 0.5070
vn -0.0469 0.5475 0.8355
vn 0.5813 -0.1081 0.8065
vn -0.7997 0.3203 0.5079
vn -0.3887 -0.8291 0.4019
vn -0.0058 0.8218 0.5698
vn -0.5843 0.6864 0.4330
vn 0.7506 -0.3420 0.5653
vn -0.1842 0.2004 0.9622
vn -0.6142 0.2698 0.7416
vn -0.1582 -0.3138 0.9362
vn -0.5541 0.1010 0.8263
vn 0.2069 -0.0358 0.9777
vn -0.2088 0.5251 0.8250
vn 0.5140 0.6883 0.5118
vn 0.5007 0.3879 0.7739
vn 0.3371 -0.5041 0.7951
vn 0.7287 0.4534 0.5133
vn 0.6836 -0.4768 0.5526
vn 0.5507 -0.6500 0.5237
vn 0.3328 -0.9375 0.1017
vn 0.8746 -0.4374 0.2091
vn 0.8955 0.4450 -0.0089
vn 0.2904 0.9364 0.1969
vn 0.1014 0.9930 0.0604
vn 0.3592 -0.9319 0.0511
vn 0.5824 -0.6075 0.5402
vn 0.6519 -0.4813 0.5860
vn 0.6737 0.4292 0.6016
vn 0.3719 0.7878 0.4910
vn -0.5140 0.6883 0.5118
vn -0.5007 0.3879 0.7739
vn -0.3371 -0.5041 0.7951
vn -0.7287 0.4534 0.5133
vn -0.6836 -0.4768 0.5526
vn -0.5507 -0.6500 0.5237
vn -0.3328 -0.9375 0.1017
vn -0.8746 -0.4374 0.2091
vn -0.8955 0.4450 -0.0089
vn -0.2904 0.9364 0.1969
vn -0.1014 0.9930 0.0604
vn -0.3592 -0.9319 0.0511
vn -0.5824 -0.6075 0.5402
vn -0.6519 -0.4813 0.5860
vn -0.6737 0.4292 0.6016
vn -0.3719 0.7878 0.4910
vn -0.9857 0.1686 0.0036
vn 0.7676 -0.1237 0.6288
vn 0.0097 0.0104 0.9999
vn -0.1603 -0.9492 0.2709
vn 0.1651 0.9531 0.2537
vn -0.1686 -0.9857 0.0055
vn 0.1686 0.9857 -0.0055
vn 0.9857 -0.1686 -0.0036
vn -0.7829 0.1412 0.6060
vn -0.8865 0.4581 0.0656
vn -0.9913 0.1293 0.0225
vn 0.3176 0.9477 0.0326
vn -0.0607 -0.2536 0.9654
vn -0.0563 -0.1973 0.9787
vn 0.1325 0.4235 0.8962
vn 0.9467 -0.3216 -0.0195
vn 0.9430 -0.3294 -0.0470
vn 0.7283 -0.6771 -0.1053
vn -0.8642 0.5023 0.0282
vn 0.9857 0.1686 0.0036
vn -0.7676 -0.1237 0.6288
vn -0.0097 0.0104 0.9999
vn 0.1603 -0.9492 0.2709
vn -0.1651 0.9531 0.2537
vn 0.1686 -0.9857 0.0055
vn -0.1686 0.9857 -0.0055
vn -0.9857 -0.1686 -0.0036
vn 0.7829 0.1412 0.6060
vn 0.8865 0.4581 0.0656
vn 0.9913 0.1293 0.0225
vn -0.3176 0.9477 0.0326
vn 0.0607 -0.2536 0.9654
vn 0.0563 -0.1973 0.9787
vn -0.1325 0.4235 0.8962
vn -0.9467 -0.3216 -0.0195
vn -0.9430 -0.3294 -0.0470
vn -0.7283 -0.6771 -0.1053
vn 0.8642 0.5023 0.0282
usemtl Material.001
s off
f 15//1 13//1 8//1 7//1
f 3//1 4//1 10//1 9//1
f 9//1 10//1 13//1 15//1
f 45//2 64//2 35//2 34//2
f 52//3 46//3 139//3 149//3
f 65//4 169//4 155//4 49//4
f 60//5 98//5 152//5 170//5
f 46//6 50//6 146//6 139//6
f 48//7 141//7 145//7 62//7
f 31//8 27//8 63//8 33//8
f 25//9 31//9 33//9 29//9
f 48//10 52//10 149//10 141//10
f 43//11 45//11 34//11 101//11
f 105//12 106//12 34//12 35//12
f 109//13 104//13 100//13 47//13
f 108//14 105//14 35//14 49//14
f 106//15 107//15 101//15 34//15
f 29//16 33//16 45//16 43//16
f 50//17 60//17 170//17 146//17
f 62//18 145//18 169//18 65//18
f 33//19 63//19 64//19 45//19
f 44//20 30//20 67//20 83//20
f 51//21 61//21 82//21 66//21
f 29//22 43//22 60//22 50//22
f 233//23 108//23 49//23 155//23
f 110//24 109//24 47//24 36//24
f 27//25 31//25 52//25 48//25
f 27//26 48//26 62//26 63//26
f 25//27 29//27 50//27 46//27
f 43//28 101//28 98//28 60//28
f 64//29 65//29 49//29 35//29
f 31//30 25//30 46//30 52//30
f 51//31 30//31 63//31 62//31
f 30//32 44//32 64//32 63//32
f 44//33 61//33 65//33 64//33
f 61//34 51//34 62//34 65//34
f 66//35 82//35 73//35 70//35
f 61//36 44//36 83//36 82//36
f 30//37 51//37 66//37 67//37
f 76//38 79//38 86//38 81//38
f 83//39 67//39 71//39 85//39
f 67//40 66//40 70//40 71//40
f 80//41 81//41 86//41 87//41
f 71//42 70//42 76//42 77//42
f 89//43 77//43 80//43 87//43
f 70//44 73//44 79//44 76//44
f 85//45 71//45 77//45 89//45
f 77//46 76//46 81//46 80//46
f 68//47 69//47 82//47 83//47
f 69//47 84//47 73//47 82//47
f 72//48 68//48 83//48 85//48
f 74//49 75//49 87//49 86//49
f 88//50 74//50 86//50 79//50
f 78//51 72//51 85//51 89//51
f 84//52 88//52 79//52 73//52
f 75//53 78//53 89//53 87//53
f 75//54 74//54 96//54 97//54
f 47//55 100//55 152//55 98//55
f 102//56 53//56 99//56 140//56
f 104//57 102//57 140//57 237//57
f 110//58 36//58 101//58 107//58
f 36//59 47//59 98//59 101//59
f 53//60 26//60 103//60 99//60
f 26//61 110//61 107//61 103//61
f 100//62 104//62 237//62 152//62
f 26//63 53//63 109//63 110//63
f 142//64 54//64 108//64 233//64
f 32//65 103//65 107//65 106//65
f 54//66 28//66 105//66 108//66
f 53//67 102//67 104//67 109//67
f 28//68 32//68 106//68 105//68
f 125//69 117//69 118//69 123//69
f 113//69 119//69 120//69 114//69
f 119//69 125//69 123//69 120//69
f 171//70 153//70 154//70 190//70
f 178//71 149//71 139//71 172//71
f 191//72 175//72 155//72 169//72
f 186//73 170//73 152//73 224//73
f 172//74 139//74 146//74 176//74
f 174//75 188//75 145//75 141//75
f 147//76 151//76 189//76 137//76
f 135//77 143//77 151//77 147//77
f 174//78 141//78 149//78 178//78
f 167//79 227//79 153//79 171//79
f 231//80 154//80 153//80 232//80
f 236//81 173//81 226//81 230//81
f 235//82 175//82 154//82 231//82
f 232//83 153//83 227//83 234//83
f 143//84 167//84 171//84 151//84
f 176//85 146//85 170//85 186//85
f 188//86 191//86 169//86 145//86
f 151//87 171//87 190//87 189//87
f 168//88 209//88 193//88 144//88
f 177//89 192//89 208//89 187//89
f 143//90 176//90 186//90 167//90
f 233//91 155//91 175//91 235//91
f 238//92 156//92 173//92 236//92
f 137//93 174//93 178//93 147//93
f 137//94 189//94 188//94 174//94
f 135//95 172//95 176//95 143//95
f 167//96 186//96 224//96 227//96
f 190//97 154//97 175//97 191//97
f 147//98 178//98 172//98 135//98
f 177//99 188//99 189//99 144//99
f 144//100 189//100 190//100 168//100
f 168//101 190//101 191//101 187//101
f 187//102 191//102 188//102 177//102
f 192//103 196//103 199//103 208//103
f 187//104 208//104 209//104 168//104
f 144//105 193//105 192//105 177//105
f 202//106 207//106 212//106 205//106
f 209//107 211//107 197//107 193//107
f 193//108 197//108 196//108 192//108
f 206//109 213//109 212//109 207//109
f 197//110 203//110 202//110 196//110
f 215//111 213//111 206//111 203//111
f 196//112 202//112 205//112 199//112
f 211//113 215//113 203//113 197//113
f 203//114 206//114 207//114 202//114
f 194//115 209//115 208//115 195//115
f 195//115 208//115 199//115 210//115
f 198//116 211//116 209//116 194//116
f 200//117 212//117 213//117 201//117
f 214//118 205//118 212//118 200//118
f 204//119 215//119 211//119 198//119
f 210//120 199//120 205//120 214//120
f 201//121 213//121 215//121 204//121
f 201//122 223//122 222//122 200//122
f 173//123 224//123 152//123 226//123
f 228//124 140//124 225//124 179//124
f 230//125 237//125 140//125 228//125
f 238//126 234//126 227//126 156//126
f 156//127 227//127 224//127 173//127
f 179//128 225//128 229//128 136//128
f 136//129 229//129 234//129 238//129
f 226//130 152//130 237//130 230//130
f 136//131 238//131 236//131 179//131
f 142//132 233//132 235//132 180//132
f 148//133 232//133 234//133 229//133
f 180//134 235//134 231//134 138//134
f 179//135 236//135 230//135 228//135
f 138//136 231//136 232//136 148//136
usemtl Material.002
f 59//137 150//137 159//137 57//137
f 55//138 57//138 159//138 157//138
f 56//139 55//139 157//139 158//139
f 41//140 40//140 38//140 37//140
f 42//141 41//141 37//141 39//141
f 58//142 42//142 39//142 56//142
f 99//143 103//143 42//143 58//143
f 103//144 32//144 41//144 42//144
f 32//145 28//145 40//145 41//145
f 54//146 142//146 150//146 59//146
f 28//147 54//147 59//147 40//147
f 140//148 99//148 58//148 163//148
f 163//149 58//149 56//149 158//149
f 39//150 37//150 55//150 56//150
f 37//151 38//151 57//151 55//151
f 40//152 59//152 57//152 38//152
f 185//153 183//153 159//153 150//153
f 181//154 157//154 159//154 183//154
f 182//155 158//155 157//155 181//155
f 165//156 160//156 161//156 164//156
f 166//157 162//157 160//157 165//157
f 184//158 182//158 162//158 166//158
f 225//159 184//159 166//159 229//159
f 229//160 166//160 165//160 148//160
f 148//161 165//161 164//161 138//161
f 180//162 185//162 150//162 142//162
f 138//163 164//163 185//163 180//163
f 140//164 163//164 184//164 225//164
f 163//165 158//165 182//165 184//165
f 162//166 182//166 181//166 160//166
f 160//167 181//167 183//167 161//167
f 164//168 161//168 183//168 185//168
usemtl Material.004
f 17//169 18//169 4//169 3//169
f 19//170 20//170 6//170 5//170
f 11//171 12//171 2//171 1//171
f 24//172 19//172 5//172 14//172
f 21//173 18//173 2//173 12//173
f 23//173 21//173 12//173 16//173
f 17//172 22//172 11//172 1//172
f 14//171 16//171 12//171 11//171
f 5//171 6//171 16//171 14//171
f 20//173 23//173 16//173 6//173
f 22//172 24//172 14//172 11//172
f 9//174 15//174 24//174 22//174
f 8//175 13//175 23//175 20//175
f 3//174 9//174 22//174 17//174
f 13//175 10//175 21//175 23//175
f 10//175 4//175 18//175 21//175
f 15//174 7//174 19//174 24//174
f 7//176 8//176 20//176 19//176
f 1//177 2//177 18//177 17//177
f 72//178 78//178 93//178 91//178
f 78//179 75//179 97//179 93//179
f 69//180 68//180 95//180 94//180
f 90//181 91//181 93//181 92//181
f 94//182 95//182 91//182 90//182
f 92//183 93//183 97//183 96//183
f 84//184 69//184 94//184 90//184
f 88//185 84//185 90//185 92//185
f 74//186 88//186 92//186 96//186
f 68//187 72//187 91//187 95//187
f 127//188 113//188 114//188 128//188
f 129//189 115//189 116//189 130//189
f 121//190 111//190 112//190 122//190
f 134//191 124//191 115//191 129//191
f 131//192 122//192 112//192 128//192
f 133//192 126//192 122//192 131//192
f 127//191 111//191 121//191 132//191
f 124//190 121//190 122//190 126//190
f 115//190 124//190 126//190 116//190
f 130//192 116//192 126//192 133//192
f 132//191 121//191 124//191 134//191
f 119//193 132//193 134//193 125//193
f 118//194 130//194 133//194 123//194
f 113//193 127//193 132//193 119//193
f 123//194 133//194 131//194 120//194
f 120//194 131//194 128//194 114//194
f 125//193 134//193 129//193 117//193
f 117//195 129//195 130//195 118//195
f 111//196 127//196 128//196 112//196
f 198//197 217//197 219//197 204//197
f 204//198 219//198 223//198 201//198
f 195//199 220//199 221//199 194//199
f 216//200 218//200 219//200 217//200
f 220//201 216//201 217//201 221//201
f 218//202 222//202 223//202 219//202
f 210//203 216//203 220//203 195//203
f 214//204 218//204 216//204 210//204
f 200//205 222//205 218//205 214//205
f 194//206 221//206 217//206 198//206
