# Blender v2.78 (sub 0) OBJ File: ''
# www.blender.org
mtllib conejo.mtl
o Cube_Cube.001
v 1.142888 4.459407 0.749382
v 0.867802 4.334012 0.779406
v 0.867801 4.210294 0.262708
v 1.142888 4.335690 0.232684
v 0.644860 4.636436 0.692084
v 0.610820 4.990988 0.454064
v 0.644859 4.512719 0.175385
v 0.610820 4.937853 0.232149
v 1.226940 3.971556 0.318320
v 1.228838 4.091270 0.835956
v 0.925457 4.107144 0.833397
v 0.923560 3.987429 0.315761
v 0.758381 4.868421 0.090216
v 0.147561 5.045035 0.215009
v 0.758382 4.992139 0.606915
v 0.183599 5.195050 0.179089
v 0.147561 5.098170 0.436924
v 0.356195 5.374291 0.381462
v 0.646857 5.087868 0.196229
v 0.548549 5.329788 0.388579
v 0.254765 6.199846 -0.142312
v 0.415306 6.241546 0.252844
v 1.049164 6.016050 -0.112921
v 0.882812 6.133569 0.269998
v 0.612462 6.779279 -0.177308
v 0.690228 6.648410 0.066214
v 0.981767 6.693834 -0.163645
v 0.830825 6.615881 0.071416
v 0.646857 5.141003 0.418144
v 0.183599 5.248185 0.401004
v 1.049164 6.107166 0.267620
v 0.254765 6.290963 0.238229
v 0.981768 6.736193 0.013264
v 0.612462 6.821638 -0.000400
v 0.876903 6.073912 0.055837
v 0.409397 6.181889 0.038682
v 0.542640 5.270130 0.174417
v 0.350286 5.314634 0.167301
v 0.824916 6.556223 -0.142746
v 0.684319 6.588753 -0.147947
v 0.457077 2.781794 2.029985
v 0.570599 3.137496 2.022520
v 0.497215 3.064658 1.629769
v 0.403834 2.772064 1.635911
v 0.382804 3.029818 2.160990
v 0.321675 2.838279 2.165010
v 0.563112 1.504792 -0.668551
v 0.552933 1.506768 -1.160620
v 0.660478 2.169977 -0.586816
v 0.646557 2.172680 -1.259807
v 0.554672 3.011371 -0.685231
v 0.544466 3.013352 -1.178629
v 0.386472 3.296857 -0.814503
v 0.381516 3.297820 -1.054068
v 0.345098 1.171908 -0.828520
v 0.341698 1.172568 -0.992851
v 0.579345 2.815170 -0.662282
v 0.568273 2.817320 -1.197559
v 0.603635 2.622007 -0.639689
v 0.591710 2.624322 -1.216195
v 0.627198 2.434630 -0.617772
v 0.614445 2.437106 -1.234273
v -1.142888 4.459407 0.749382
v -0.867802 4.334012 0.779406
v -0.867801 4.210294 0.262708
v -1.142888 4.335690 0.232684
v -0.644860 4.636436 0.692084
v -0.610820 4.990988 0.454064
v -0.644859 4.512719 0.175385
v -0.610820 4.937853 0.232149
v 0.000000 4.671443 0.151335
v 0.000000 5.043884 0.062157
v 0.000000 4.795161 0.668033
v 0.000000 5.167602 0.578856
v -1.226940 3.971556 0.318320
v -1.228838 4.091270 0.835956
v -0.925457 4.107144 0.833397
v -0.923560 3.987429 0.315761
v -0.758381 4.868421 0.090216
v -0.147561 5.045035 0.215009
v -0.758382 4.992139 0.606915
v -0.183599 5.195050 0.179089
v -0.147561 5.098170 0.436924
v -0.356195 5.374291 0.381462
v -0.646857 5.087868 0.196229
v -0.548549 5.329788 0.388579
v -0.254765 6.199846 -0.142312
v -0.415306 6.241546 0.252844
v -1.049164 6.016050 -0.112921
v -0.882812 6.133569 0.269998
v -0.612462 6.779279 -0.177308
v -0.690228 6.648410 0.066214
v -0.981767 6.693834 -0.163645
v -0.830825 6.615881 0.071416
v -0.646857 5.141003 0.418144
v -0.183599 5.248185 0.401004
v -1.049164 6.107166 0.267620
v -0.254765 6.290963 0.238229
v -0.981768 6.736193 0.013264
v -0.612462 6.821638 -0.000400
v -0.876903 6.073912 0.055837
v -0.409397 6.181889 0.038682
v -0.542640 5.270130 0.174417
v -0.350286 5.314634 0.167301
v -0.824916 6.556223 -0.142746
v -0.684319 6.588753 -0.147947
v -0.457077 2.781794 2.029985
v 0.000000 2.302731 2.083638
v 0.000000 3.312959 1.994461
v -0.570599 3.137496 2.022520
v -0.497215 3.064658 1.629769
v -0.403834 2.772064 1.635911
v 0.000000 2.377997 1.680044
v 0.000000 3.208991 1.606689
v -0.382804 3.029818 2.160990
v -0.321675 2.838279 2.165010
v 0.000000 2.580313 2.193901
v 0.000000 3.124301 2.145881
v -0.563112 1.504792 -0.668551
v 0.000000 1.511932 -0.307980
v 0.000000 1.493066 -1.517526
v -0.552933 1.506768 -1.160620
v 0.000000 2.179743 -0.093671
v 0.000000 2.153939 -1.747939
v -0.660478 2.169977 -0.586816
v -0.646557 2.172680 -1.259807
v 0.000000 3.018531 -0.323686
v 0.000000 2.999614 -1.536499
v -0.554672 3.011371 -0.685231
v -0.544466 3.013352 -1.178629
v 0.000000 3.518458 -0.638959
v 0.000000 3.509273 -1.227828
v -0.386472 3.296857 -0.814503
v -0.381516 3.297820 -1.054068
v -0.345098 1.171908 -0.828520
v 0.000000 0.983435 -0.708104
v 0.000000 0.977134 -1.112043
v -0.341698 1.172568 -0.992851
v -0.579345 2.815170 -0.662282
v 0.000000 2.802414 -1.585804
v -0.568273 2.817320 -1.197559
v 0.000000 2.822937 -0.270050
v -0.603635 2.622007 -0.639689
v -0.591710 2.624322 -1.216195
v 0.000000 2.630373 -0.217244
v 0.000000 2.608269 -1.634345
v -0.627198 2.434630 -0.617772
v -0.614445 2.437106 -1.234273
v 0.000000 2.443576 -0.166021
v 0.000000 2.419939 -1.681432
vn 0.0225 -0.2500 -0.9680
vn -0.0187 -0.2301 -0.9730
vn -0.0225 0.2500 0.9680
vn 0.8202 0.5564 -0.1332
vn -0.2408 -0.9439 0.2260
vn -0.8158 -0.5625 0.1347
vn 0.9738 -0.2212 0.0530
vn -0.0528 -0.9729 0.2252
vn 0.0187 0.2301 0.9730
vn 0.0026 0.2305 0.9731
vn 0.9754 0.2142 -0.0522
vn -0.9712 -0.2315 0.0563
vn -0.0026 -0.2305 -0.9731
vn 0.2275 0.9470 -0.2268
vn 0.9244 -0.3711 0.0888
vn -0.9738 0.2212 -0.0530
vn 0.0170 0.2290 0.9733
vn -0.0170 -0.2290 -0.9733
vn -0.8477 0.5159 -0.1235
vn -0.9977 0.0656 -0.0157
vn -0.0347 -0.3022 -0.9526
vn 0.0201 -0.0726 -0.9972
vn 0.9950 0.0972 -0.0233
vn -0.0009 0.1543 0.9880
vn 0.0154 0.1440 0.9895
vn -0.0204 0.1521 0.9881
vn 0.0536 0.3793 0.9237
vn 0.0469 0.3862 0.9212
vn 0.0627 0.3824 0.9219
vn 0.4721 -0.5614 0.6797
vn 0.5563 -0.2187 0.8017
vn 0.5639 -0.2364 -0.7913
vn 0.9896 -0.1423 -0.0210
vn 0.8646 0.5022 -0.0159
vn 0.4911 0.8710 -0.0116
vn 0.5174 0.5028 0.6925
vn 0.5103 0.4902 -0.7066
vn 0.4879 -0.8729 0.0057
vn 0.4861 -0.5684 -0.6638
vn 0.8407 -0.5412 -0.0196
vn 0.5583 0.1929 0.8069
vn 0.9923 0.1224 -0.0200
vn 0.5589 0.1745 -0.8107
vn 0.5825 0.1911 0.7900
vn 0.5836 0.1730 -0.7934
vn -0.0225 -0.2500 -0.9680
vn 0.0187 -0.2301 -0.9730
vn 0.0225 0.2500 0.9680
vn -0.8202 0.5564 -0.1332
vn 0.2408 -0.9439 0.2260
vn 0.8158 -0.5625 0.1347
vn -0.9738 -0.2212 0.0530
vn 0.0528 -0.9729 0.2252
vn -0.0187 0.2301 0.9730
vn -0.0026 0.2305 0.9731
vn -0.9754 0.2142 -0.0522
vn 0.9712 -0.2315 0.0563
vn 0.0026 -0.2305 -0.9731
vn -0.2275 0.9470 -0.2267
vn -0.2275 0.9470 -0.2268
vn -0.9244 -0.3711 0.0888
vn 0.9738 0.2212 -0.0530
vn -0.0170 0.2290 0.9733
vn 0.0170 -0.2290 -0.9733
vn 0.8477 0.5159 -0.1235
vn 0.9977 0.0656 -0.0157
vn 0.0347 -0.3022 -0.9526
vn -0.0201 -0.0726 -0.9972
vn -0.9950 0.0972 -0.0233
vn 0.0009 0.1543 0.9880
vn -0.0154 0.1440 0.9895
vn 0.0204 0.1521 0.9881
vn -0.0536 0.3793 0.9237
vn -0.0469 0.3862 0.9212
vn -0.0627 0.3824 0.9219
vn -0.4721 -0.5614 0.6797
vn -0.5563 -0.2187 0.8017
vn -0.5639 -0.2364 -0.7913
vn -0.9896 -0.1423 -0.0210
vn -0.8646 0.5022 -0.0159
vn -0.4911 0.8710 -0.0116
vn -0.5174 0.5028 0.6925
vn -0.5103 0.4902 -0.7066
vn -0.4879 -0.8729 0.0057
vn -0.4861 -0.5684 -0.6638
vn -0.8407 -0.5412 -0.0196
vn -0.5583 0.1929 0.8069
vn -0.9923 0.1224 -0.0200
vn -0.5589 0.1745 -0.8107
vn -0.5825 0.1911 0.7900
vn -0.5836 0.1730 -0.7934
vn 0.9976 -0.0692 -0.0082
vn 0.8473 -0.5172 0.1207
vn -0.0024 0.1469 0.9891
vn 0.0551 0.3852 0.9212
vn 0.2266 0.9366 -0.2672
vn -0.9950 -0.0861 0.0514
vn -0.2266 -0.9366 0.2672
vn -0.9245 0.3729 -0.0784
vn 0.5452 0.1753 -0.8198
vn 0.5448 0.1938 0.8158
vn 0.5709 0.1738 -0.8024
vn 0.5701 0.1920 0.7988
vn -0.9976 -0.0692 -0.0082
vn -0.8473 -0.5172 0.1207
vn 0.0024 0.1469 0.9891
vn -0.0551 0.3852 0.9212
vn -0.2266 0.9366 -0.2672
vn 0.9950 -0.0861 0.0514
vn 0.2266 -0.9366 0.2672
vn 0.9245 0.3729 -0.0784
vn -0.5452 0.1753 -0.8198
vn -0.5448 0.1938 0.8158
vn -0.5709 0.1738 -0.8024
vn -0.5701 0.1920 0.7988
vn -0.4598 0.3969 -0.7944
vn 0.0038 0.0703 0.9975
vn -0.7023 0.7042 0.1047
vn -0.2891 -0.9274 0.2373
vn -0.9450 0.3041 0.1202
vn -0.0032 -0.0703 -0.9975
vn -0.1478 -0.6422 -0.7522
vn -0.6515 0.1925 -0.7338
vn 0.4598 0.3969 -0.7944
vn -0.0038 0.0703 0.9975
vn 0.7023 0.7042 0.1047
vn 0.2891 -0.9274 0.2373
vn 0.9450 0.3041 0.1202
vn 0.0032 -0.0703 -0.9975
vn 0.1478 -0.6422 -0.7522
vn 0.6515 0.1925 -0.7338
usemtl Material.001
s off
f 7//1 13//1 4//1 3//1
f 71//2 72//2 13//2 7//2
f 15//3 5//3 2//3 1//3
f 13//4 15//4 1//4 4//4
f 71//5 7//5 5//5 73//5
f 5//6 7//6 3//6 2//6
f 6//7 8//7 19//7 29//7
f 12//8 9//8 10//8 11//8
f 5//9 15//9 74//9 73//9
f 1//10 2//10 11//10 10//10
f 4//11 1//11 10//11 9//11
f 2//12 3//12 12//12 11//12
f 3//13 4//13 9//13 12//13
f 14//14 8//14 13//14 72//14
f 8//14 6//14 15//14 13//14
f 6//14 17//14 74//14 15//14
f 17//14 14//14 72//14 74//14
f 29//15 19//15 23//15 31//15
f 14//16 17//16 30//16 16//16
f 17//17 6//17 29//17 30//17
f 8//18 14//18 16//18 19//18
f 21//19 32//19 34//19 25//19
f 16//20 30//20 32//20 21//20
f 19//21 16//21 21//21 23//21
f 27//14 25//14 34//14 33//14
f 23//22 21//22 25//22 27//22
f 31//23 23//23 27//23 33//23
f 20//24 18//24 30//24 29//24
f 24//25 20//25 29//25 31//25
f 18//26 22//26 32//26 30//26
f 26//27 28//27 33//27 34//27
f 22//28 26//28 34//28 32//28
f 28//29 24//29 31//29 33//29
f 47//30 120//30 136//30 55//30
f 120//31 47//31 49//31 123//31
f 48//32 121//32 124//32 50//32
f 47//33 48//33 50//33 49//33
f 51//34 52//34 54//34 53//34
f 132//35 131//35 53//35 54//35
f 127//36 51//36 53//36 131//36
f 52//37 128//37 132//37 54//37
f 137//38 56//38 55//38 136//38
f 121//39 48//39 56//39 137//39
f 48//40 47//40 55//40 56//40
f 145//41 59//41 57//41 142//41
f 59//42 60//42 58//42 57//42
f 60//43 146//43 140//43 58//43
f 123//44 49//44 61//44 149//44
f 49//42 50//42 62//42 61//42
f 50//45 124//45 150//45 62//45
f 69//46 65//46 66//46 79//46
f 71//47 69//47 79//47 72//47
f 81//48 63//48 64//48 67//48
f 79//49 66//49 63//49 81//49
f 71//50 73//50 67//50 69//50
f 67//51 64//51 65//51 69//51
f 68//52 95//52 85//52 70//52
f 78//53 77//53 76//53 75//53
f 67//54 73//54 74//54 81//54
f 63//55 76//55 77//55 64//55
f 66//56 75//56 76//56 63//56
f 64//57 77//57 78//57 65//57
f 65//58 78//58 75//58 66//58
f 80//59 72//59 79//59 70//59
f 70//60 79//60 81//60 68//60
f 68//60 81//60 74//60 83//60
f 83//60 74//60 72//60 80//60
f 95//61 97//61 89//61 85//61
f 80//62 82//62 96//62 83//62
f 83//63 96//63 95//63 68//63
f 70//64 85//64 82//64 80//64
f 87//65 91//65 100//65 98//65
f 82//66 87//66 98//66 96//66
f 85//67 89//67 87//67 82//67
f 93//60 99//60 100//60 91//60
f 89//68 93//68 91//68 87//68
f 97//69 99//69 93//69 89//69
f 86//70 95//70 96//70 84//70
f 90//71 97//71 95//71 86//71
f 84//72 96//72 98//72 88//72
f 92//73 100//73 99//73 94//73
f 88//74 98//74 100//74 92//74
f 94//75 99//75 97//75 90//75
f 119//76 135//76 136//76 120//76
f 120//77 123//77 125//77 119//77
f 122//78 126//78 124//78 121//78
f 119//79 125//79 126//79 122//79
f 129//80 133//80 134//80 130//80
f 132//81 134//81 133//81 131//81
f 127//82 131//82 133//82 129//82
f 130//83 134//83 132//83 128//83
f 137//84 136//84 135//84 138//84
f 121//85 137//85 138//85 122//85
f 122//86 138//86 135//86 119//86
f 145//87 142//87 139//87 143//87
f 143//88 139//88 141//88 144//88
f 144//89 141//89 140//89 146//89
f 123//90 149//90 147//90 125//90
f 125//88 147//88 148//88 126//88
f 126//91 148//91 150//91 124//91
usemtl Material.002
f 22//92 18//92 38//92 36//92
f 26//93 22//93 36//93 40//93
f 38//94 37//94 35//94 36//94
f 36//95 35//95 39//95 40//95
f 18//96 20//96 37//96 38//96
f 24//97 28//97 39//97 35//97
f 28//98 26//98 40//98 39//98
f 20//99 24//99 35//99 37//99
f 58//100 140//100 128//100 52//100
f 57//42 58//42 52//42 51//42
f 142//101 57//101 51//101 127//101
f 62//102 150//102 146//102 60//102
f 61//42 62//42 60//42 59//42
f 149//103 61//103 59//103 145//103
f 88//104 102//104 104//104 84//104
f 92//105 106//105 102//105 88//105
f 104//106 102//106 101//106 103//106
f 102//107 106//107 105//107 101//107
f 84//108 104//108 103//108 86//108
f 90//109 101//109 105//109 94//109
f 94//110 105//110 106//110 92//110
f 86//111 103//111 101//111 90//111
f 141//112 130//112 128//112 140//112
f 139//88 129//88 130//88 141//88
f 142//113 127//113 129//113 139//113
f 148//114 144//114 146//114 150//114
f 147//88 143//88 144//88 148//88
f 149//115 145//115 143//115 147//115
usemtl Material.003
f 41//116 108//116 117//116 46//116
f 44//117 43//117 114//117 113//117
f 108//118 41//118 44//118 113//118
f 42//119 109//119 114//119 43//119
f 41//120 42//120 43//120 44//120
f 46//121 117//121 118//121 45//121
f 109//122 42//122 45//122 118//122
f 42//123 41//123 46//123 45//123
f 107//124 116//124 117//124 108//124
f 112//125 113//125 114//125 111//125
f 108//126 113//126 112//126 107//126
f 110//127 111//127 114//127 109//127
f 107//128 112//128 111//128 110//128
f 116//129 115//129 118//129 117//129
f 109//130 118//130 115//130 110//130
f 110//131 115//131 116//131 107//131
