# Blender v2.78 (sub 0) OBJ File: ''
# www.blender.org
mtllib nube1.mtl
o Cube_Cube.002
v -0.115486 4.094189 0.428920
v -0.372149 7.555770 1.581109
v -0.080014 3.346600 -2.145475
v 0.150352 5.624932 -1.639600
v 2.056830 4.065354 0.459087
v 2.820869 7.374241 1.571680
v 2.244228 3.289034 -2.135557
v 1.871265 5.647559 -1.627971
v -0.201127 3.422615 -1.363925
v -0.120935 3.879975 -0.672399
v -0.088922 4.064634 -0.125814
v -0.652782 6.994513 0.736367
v -0.317642 6.280577 -0.868243
v -0.010489 5.871829 -1.343576
v 2.086103 4.063291 -0.122324
v 2.116217 3.881165 -0.666076
v 2.196897 3.419595 -1.364284
v 2.030766 5.892076 -1.345266
v 2.361641 6.320007 -0.876224
v 2.714037 7.032641 0.605462
v 1.458132 3.174504 -2.311089
v 0.991788 2.805714 -2.525456
v 0.565697 3.149290 -2.321470
v 0.512729 5.707862 -1.714217
v 1.007812 5.763306 -1.763474
v 1.512457 5.744738 -1.721308
v 0.483651 4.007602 0.504492
v 1.001475 4.001593 0.503879
v 1.505925 4.006134 0.502657
v 1.868941 7.718374 1.383388
v 1.036592 7.903636 1.079737
v 0.233998 7.722056 1.369183
v 0.448834 6.104709 -1.307959
v 1.006730 6.230541 -1.328218
v 1.571283 6.126529 -1.318955
v 0.307983 6.591539 -0.997386
v 1.008973 6.845893 -1.059816
v 1.722448 6.624809 -1.004758
v 0.033291 7.623690 -0.483593
v 1.021080 7.983473 -0.719706
v 2.019114 7.605229 -0.437982
v 1.476070 3.358542 -1.328076
v 0.998162 3.388202 -1.322698
v 0.526028 3.360707 -1.325072
v 1.489827 3.904809 -0.661186
v 1.000137 3.967238 -0.660202
v 0.509591 3.903692 -0.662946
v 1.499649 4.072755 -0.120575
v 1.000232 4.106077 -0.118342
v 0.500555 4.072773 -0.121312
v -0.359048 4.588794 0.678191
v -0.694934 5.019063 0.978142
v -1.257346 5.876964 1.529047
v 0.032725 5.101691 -1.866617
v -0.045516 3.933652 -2.348607
v -0.183698 3.517851 -2.489284
v 1.985490 5.134878 -1.849603
v 2.057695 3.966216 -2.339676
v 2.204541 3.524288 -2.475187
v 3.282996 5.851505 1.481203
v 2.698468 5.018427 0.970067
v 2.360176 4.593513 0.683264
v 2.333694 5.453440 -1.391169
v 2.550731 4.793947 -1.492841
v 2.616003 4.071107 -1.499490
v 2.777778 5.846549 -0.971302
v 2.822092 5.134476 -0.921603
v 2.609041 4.455327 -0.734423
v 3.472188 6.067142 -0.286197
v 2.910493 5.099825 -0.198853
v 2.497982 4.607809 -0.150955
v -1.490340 6.119256 -0.247793
v -0.917885 5.107077 -0.235730
v -0.503048 4.612228 -0.162242
v -0.785726 5.846077 -0.963478
v -0.828369 5.135101 -0.923622
v -0.609274 4.443427 -0.750498
v -0.339519 5.449666 -1.405354
v -0.540168 4.781724 -1.477139
v -0.609022 4.059458 -1.495685
v 1.731086 5.541953 2.358475
v 1.609436 4.929819 1.403796
v 1.539647 4.571218 0.940194
v 1.006870 5.372887 2.479707
v 0.994545 4.938210 1.349426
v 1.002383 4.573576 0.907693
v 0.319997 5.497139 2.342170
v 0.390161 4.934602 1.417418
v 0.450866 4.566159 0.936293
v 0.528552 4.379289 -2.480391
v 0.515104 3.401822 -3.233306
v 0.514611 2.995393 -3.428987
v 1.006194 4.004862 -2.801193
v 0.999548 3.241963 -3.673402
v 0.996205 2.807074 -3.614495
v 1.500346 4.541795 -2.468459
v 1.492605 3.405645 -3.246804
v 1.496306 2.999203 -3.414670
vn -0.5117 0.4629 -0.7238
vn 0.3914 0.4700 -0.7911
vn 0.8989 0.4381 0.0069
vn -0.2313 0.2680 0.9352
vn 0.0415 -0.9977 -0.0527
vn -0.5925 0.8005 -0.0900
vn -0.2863 0.6589 -0.6956
vn -0.3303 0.5238 -0.7852
vn -0.7817 0.3517 -0.5150
vn 0.0977 -0.9793 0.1773
vn 0.0404 -0.8029 0.5948
vn -0.0243 -0.9515 0.3067
vn 0.5488 0.4405 -0.7105
vn 0.4210 0.4533 -0.7857
vn 0.4448 0.7243 -0.5268
vn -0.8433 0.5278 0.1010
vn -0.3719 0.7824 -0.4995
vn -0.3931 0.5064 -0.7675
vn 0.0213 -0.9509 0.3087
vn 0.0921 -0.9576 0.2729
vn -0.0918 -0.9578 0.2723
vn -0.0437 -0.8025 0.5951
vn 0.0685 -0.7609 0.6453
vn -0.0682 -0.7611 0.6451
vn -0.1699 -0.9751 0.1423
vn -0.2480 -0.9124 0.3256
vn 0.2576 -0.9127 0.3172
vn 0.7389 0.3854 -0.5527
vn 0.2947 0.3395 -0.8933
vn -0.2773 0.3226 -0.9050
vn 0.3233 0.5073 -0.7988
vn 0.1566 0.4408 -0.8838
vn -0.1899 0.4378 -0.8788
vn 0.3189 0.6467 -0.6929
vn 0.1137 0.6938 -0.7111
vn -0.1644 0.6818 -0.7128
vn 0.5527 0.8238 -0.1258
vn 0.2936 0.9559 0.0021
vn -0.2862 0.9581 0.0121
vn -0.0636 -0.9974 -0.0324
vn 0.0269 -0.9906 -0.1343
vn -0.0289 -0.9903 -0.1359
vn 0.2603 0.2461 0.9336
vn -0.0993 0.4511 0.8870
vn 0.0738 0.4460 0.8920
vn -0.3200 0.4614 -0.8275
vn -0.1612 0.4974 -0.8524
vn 0.0536 0.5153 -0.8553
vn 0.4750 -0.8765 0.0788
vn 0.5013 0.1113 -0.8581
vn 0.1149 0.6512 -0.7502
vn -0.4815 -0.8736 0.0709
vn -0.5018 0.1410 -0.8534
vn -0.1937 0.6708 -0.7159
vn -0.4477 -0.8934 0.0371
vn -0.6438 0.3802 -0.6640
vn -0.5135 0.4444 -0.7340
vn 0.0228 -0.5938 0.8043
vn 0.0595 -0.7795 0.6236
vn -0.1069 -0.8957 0.4316
vn -0.0229 -0.5942 0.8040
vn -0.0544 -0.7783 0.6255
vn 0.1286 -0.8895 0.4384
vn 0.2096 -0.5528 0.8065
vn 0.2678 -0.7355 0.6223
vn 0.3840 -0.7433 0.5478
vn -0.7793 -0.5209 0.3484
vn -0.9814 -0.1206 -0.1495
vn -0.7404 0.1458 -0.6561
vn -0.7598 -0.5887 0.2759
vn -0.8856 -0.4602 0.0624
vn -0.8563 -0.2764 -0.4362
vn -0.8367 -0.5429 0.0728
vn -0.7603 -0.6417 0.1010
vn -0.8438 -0.5322 0.0699
vn 0.7599 -0.5911 0.2706
vn 0.8853 -0.4615 0.0570
vn 0.8506 -0.2974 -0.4337
vn 0.7789 -0.5217 0.3482
vn 0.9842 -0.1204 -0.1294
vn 0.7375 0.1653 -0.6548
vn 0.9126 -0.4077 -0.0321
vn 0.8010 0.2141 -0.5590
vn 0.6375 0.3267 -0.6978
vn -0.2309 -0.5704 0.7883
vn -0.2693 -0.7384 0.6183
vn -0.3871 -0.7416 0.5479
vn 0.8207 -0.5640 0.0920
vn 0.7566 -0.6459 0.1013
vn 0.8357 -0.5460 0.0590
vn 0.4171 -0.9080 -0.0382
vn 0.6596 0.3541 -0.6630
vn 0.5811 0.4048 -0.7060
vn -0.8270 -0.5589 -0.0601
vn -0.7978 0.2235 -0.5600
vn -0.6466 0.3086 -0.6976
usemtl None
s off
f 78//1 14//1 4//1 54//1
f 96//2 26//2 8//2 57//2
f 69//3 20//3 6//3 60//3
f 87//4 32//4 2//4 53//4
f 48//5 15//5 5//5 29//5
f 39//6 12//6 2//6 32//6
f 24//7 4//7 14//7 33//7
f 33//8 14//8 13//8 36//8
f 36//9 13//9 12//9 39//9
f 21//10 7//10 17//10 42//10
f 42//11 17//11 16//11 45//11
f 45//12 16//12 15//12 48//12
f 57//13 8//13 18//13 63//13
f 63//14 18//14 19//14 66//14
f 66//15 19//15 20//15 69//15
f 53//16 2//16 12//16 72//16
f 72//17 12//17 13//17 75//17
f 75//18 13//18 14//18 78//18
f 10//19 47//19 50//19 11//19
f 47//20 46//20 49//20 50//20
f 46//21 45//21 48//21 49//21
f 9//22 44//22 47//22 10//22
f 44//23 43//23 46//23 47//23
f 43//24 42//24 45//24 46//24
f 3//25 23//25 44//25 9//25
f 23//26 22//26 43//26 44//26
f 22//27 21//27 42//27 43//27
f 19//28 38//28 41//28 20//28
f 38//29 37//29 40//29 41//29
f 37//30 36//30 39//30 40//30
f 18//31 35//31 38//31 19//31
f 35//32 34//32 37//32 38//32
f 34//33 33//33 36//33 37//33
f 8//34 26//34 35//34 18//34
f 26//35 25//35 34//35 35//35
f 25//36 24//36 33//36 34//36
f 20//37 41//37 30//37 6//37
f 41//38 40//38 31//38 30//38
f 40//39 39//39 32//39 31//39
f 11//40 50//40 27//40 1//40
f 50//41 49//41 28//41 27//41
f 49//42 48//42 29//42 28//42
f 60//43 6//43 30//43 81//43
f 81//44 30//44 31//44 84//44
f 84//45 31//45 32//45 87//45
f 54//46 4//46 24//46 90//46
f 90//47 24//47 25//47 93//47
f 93//48 25//48 26//48 96//48
f 22//49 95//49 98//49 21//49
f 95//50 94//50 97//50 98//50
f 94//51 93//51 96//51 97//51
f 23//52 92//52 95//52 22//52
f 92//53 91//53 94//53 95//53
f 91//54 90//54 93//54 94//54
f 3//55 56//55 92//55 23//55
f 56//56 55//56 91//56 92//56
f 55//57 54//57 90//57 91//57
f 28//58 86//58 89//58 27//58
f 86//59 85//59 88//59 89//59
f 85//60 84//60 87//60 88//60
f 29//61 83//61 86//61 28//61
f 83//62 82//62 85//62 86//62
f 82//63 81//63 84//63 85//63
f 5//64 62//64 83//64 29//64
f 62//65 61//65 82//65 83//65
f 61//66 60//66 81//66 82//66
f 10//67 77//67 80//67 9//67
f 77//68 76//68 79//68 80//68
f 76//69 75//69 78//69 79//69
f 11//70 74//70 77//70 10//70
f 74//71 73//71 76//71 77//71
f 73//72 72//72 75//72 76//72
f 1//73 51//73 74//73 11//73
f 51//74 52//74 73//74 74//74
f 52//75 53//75 72//75 73//75
f 16//76 68//76 71//76 15//76
f 68//77 67//77 70//77 71//77
f 67//78 66//78 69//78 70//78
f 17//79 65//79 68//79 16//79
f 65//80 64//80 67//80 68//80
f 64//81 63//81 66//81 67//81
f 7//82 59//82 65//82 17//82
f 59//83 58//83 64//83 65//83
f 58//84 57//84 63//84 64//84
f 27//85 89//85 51//85 1//85
f 89//86 88//86 52//86 51//86
f 88//87 87//87 53//87 52//87
f 15//88 71//88 62//88 5//88
f 71//89 70//89 61//89 62//89
f 70//90 69//90 60//90 61//90
f 21//91 98//91 59//91 7//91
f 98//92 97//92 58//92 59//92
f 97//93 96//93 57//93 58//93
f 9//94 80//94 56//94 3//94
f 80//95 79//95 55//95 56//95
f 79//96 78//96 54//96 55//96
