# Blender v2.78 (sub 0) OBJ File: ''
# www.blender.org
mtllib nube2.mtl
o Cube_Cube.002
v 0.624505 5.951684 -0.362077
v 1.608222 5.326035 -2.694841
v -0.275017 4.854155 0.822428
v 0.767051 4.711061 -1.756493
v 2.823124 6.416141 1.324957
v 3.559471 5.378655 -1.395322
v 3.877017 5.570933 2.129292
v 4.077172 4.767251 -0.375183
v -0.171711 5.313958 0.464900
v 0.082782 5.690627 0.198048
v 0.416276 5.881577 -0.095826
v 1.472362 5.216151 -2.717678
v 1.214053 5.120314 -2.471636
v 0.913233 4.919880 -2.091098
v 3.119812 6.269209 1.651190
v 3.347212 6.129159 1.994606
v 3.607013 5.850995 2.206755
v 4.109178 5.073532 -0.672940
v 3.857477 5.110256 -1.251369
v 3.638791 5.129337 -1.637102
v 3.515917 5.252851 2.964540
v 2.014347 4.834859 3.924921
v -0.426289 4.690104 1.928032
v 1.153141 4.638605 -1.810535
v 1.870300 4.580010 -1.666003
v 3.382567 4.521161 -0.730557
v 0.885412 6.258496 -0.054521
v 1.256398 6.491110 0.315644
v 2.337887 6.727148 1.442846
v 3.266621 5.782852 -1.679325
v 2.380162 5.751160 -2.490333
v 1.888048 5.578201 -2.684122
v 1.407235 4.858554 -2.687733
v 1.928544 4.878689 -2.891909
v 3.500162 4.929499 -2.012575
v 1.588572 5.103902 -2.985787
v 2.365487 5.151731 -2.907645
v 3.532655 5.211255 -2.259935
v 1.854536 5.325955 -2.989352
v 2.491300 5.406940 -2.849154
v 3.436966 5.397304 -2.207633
v 2.809732 5.928044 3.044983
v 1.685709 5.898098 3.659649
v 0.266678 5.652477 1.671926
v 2.569862 6.455150 2.559952
v 1.057708 6.516635 1.498956
v 0.410170 6.201046 1.053787
v 2.423274 6.712876 2.056442
v 1.156851 6.638916 0.876850
v 0.709203 6.367582 0.540738
v 0.689745 5.986810 -0.717300
v 0.556507 6.131185 -1.075488
v 0.917665 6.013715 -1.958137
v 0.527537 4.705856 -1.231360
v 0.259132 4.738676 -0.597582
v 0.036098 4.788836 0.102562
v 4.224637 4.999152 0.478637
v 4.175745 5.222866 1.079049
v 4.076717 5.329223 1.669897
v 3.343781 6.181891 -0.384245
v 3.239888 6.416273 0.512253
v 3.120813 6.329792 0.887969
v 4.148765 5.498254 0.403711
v 4.070240 5.647231 0.941074
v 3.930886 5.735582 1.397370
v 3.953259 5.751697 0.106753
v 3.866340 5.832091 0.775293
v 3.711479 5.894827 1.277263
v 3.674793 5.932340 -0.198979
v 3.599955 6.040667 0.613745
v 3.472646 6.026430 1.050581
v 0.733281 5.590895 -1.747197
v 0.530145 5.648756 -1.125434
v 0.460067 5.660003 -0.717953
v 0.528743 5.322121 -1.608954
v 0.303312 5.395593 -1.045862
v 0.170692 5.454652 -0.569377
v 0.508816 5.002411 -1.457094
v 0.213043 5.087669 -0.883475
v -0.036366 5.192166 -0.436989
v 2.989238 6.230400 -0.608601
v 2.044621 6.672841 -0.715973
v 1.861426 6.299121 -0.299882
v 1.958545 6.502474 -2.055091
v 1.448135 6.687498 -0.794417
v 1.472218 6.371106 -0.327529
v 1.435105 6.199593 -2.127361
v 1.020146 6.577530 -0.933996
v 1.018813 6.364508 -0.504532
v 0.787114 4.465959 -1.042570
v 0.527071 4.442993 -0.205847
v 0.357697 4.477674 0.905733
v 1.891830 4.464573 -0.527079
v 1.698424 4.458138 0.506792
v 2.363398 4.226882 2.403081
v 3.826147 4.549160 0.345990
v 3.902591 4.748888 1.281811
v 3.793106 4.786667 2.327441
vn -0.8455 -0.2864 -0.4506
vn 0.5545 -0.8301 -0.0580
vn 0.7024 0.6178 -0.3536
vn -0.4020 0.4414 -0.8022
vn 0.5169 0.8537 -0.0637
vn -0.5588 0.6849 -0.4675
vn -0.4346 -0.7942 -0.4246
vn -0.7880 -0.0774 -0.6107
vn -0.6102 0.6011 -0.5161
vn 0.6379 0.5654 0.5230
vn 0.5593 0.7131 0.4227
vn 0.5351 0.8307 0.1539
vn 0.9950 0.0083 -0.0992
vn 0.8307 0.4916 -0.2614
vn 0.7209 0.6013 -0.3446
vn -0.6985 0.1749 -0.6938
vn -0.7264 0.2458 -0.6418
vn -0.8132 -0.0875 -0.5754
vn -0.6652 0.7184 -0.2032
vn -0.4972 0.8664 0.0461
vn -0.2610 0.9112 0.3186
vn -0.8649 0.4873 0.1205
vn -0.6391 0.6630 0.3899
vn -0.0590 0.9089 0.4129
vn -0.8577 0.5096 0.0680
vn -0.7009 0.2934 0.6501
vn 0.4377 0.3487 0.8288
vn 0.5306 0.8474 0.0210
vn 0.5096 0.1766 -0.8421
vn 0.1537 -0.0125 -0.9880
vn 0.8907 -0.2915 -0.3489
vn 0.3923 -0.6436 -0.6572
vn -0.0617 -0.4620 -0.8848
vn 0.5944 -0.7523 -0.2840
vn 0.1497 -0.9543 -0.2585
vn -0.0419 -0.9686 -0.2451
vn 0.8660 0.4855 -0.1195
vn 0.3926 0.7675 -0.5068
vn 0.0294 0.7453 -0.6660
vn -0.5827 0.7575 -0.2943
vn -0.3187 0.9064 -0.2773
vn -0.0200 0.9934 -0.1132
vn 0.6798 0.6885 -0.2526
vn 0.5271 0.7670 -0.3659
vn -0.0486 0.5645 -0.8240
vn -0.3661 -0.8832 -0.2929
vn 0.0202 -0.9891 -0.1458
vn 0.0316 -0.9984 -0.0460
vn 0.4278 -0.7536 0.4990
vn 0.2465 -0.9629 -0.1099
vn 0.0501 -0.9937 0.1005
vn -0.1962 -0.9554 0.2207
vn -0.0324 -0.9977 -0.0599
vn 0.0128 -0.9998 -0.0126
vn -0.4873 -0.8566 -0.1698
vn -0.6128 -0.7844 -0.0960
vn -0.5788 -0.7898 -0.2027
vn -0.2256 0.9706 -0.0845
vn -0.2857 0.8220 0.4927
vn -0.3151 0.8922 -0.3235
vn 0.0730 0.9702 -0.2308
vn 0.0029 0.7876 0.6161
vn 0.2970 0.9447 -0.1393
vn 0.2970 0.9236 -0.2423
vn -0.3034 0.8696 0.3896
vn 0.3956 0.8877 -0.2357
vn -0.8507 0.4791 -0.2164
vn -0.8790 0.2475 -0.4077
vn -0.9105 -0.0460 -0.4110
vn -0.6524 0.6993 -0.2921
vn -0.6999 0.6812 -0.2147
vn -0.7894 0.5097 -0.3420
vn -0.7229 0.6594 -0.2064
vn -0.9477 0.2918 0.1289
vn -0.9199 0.1497 -0.3625
vn 0.5241 0.8513 -0.0230
vn 0.4984 0.8605 0.1054
vn 0.6012 0.7983 -0.0361
vn 0.6288 0.7702 0.1070
vn 0.6047 0.7941 0.0605
vn 0.7507 0.6602 -0.0226
vn 0.8169 0.5469 0.1832
vn 0.9248 0.3516 0.1452
vn 0.9784 0.2022 0.0433
vn -0.7323 0.6782 -0.0618
vn -0.7433 0.5535 0.3756
vn -0.5096 0.7743 -0.3753
vn 0.5342 0.8427 0.0676
vn 0.6076 0.7446 0.2765
vn 0.6856 0.7242 -0.0735
vn 0.9176 0.0023 0.3976
vn 0.9150 -0.3746 0.1496
vn 0.8056 -0.5747 0.1440
vn -0.9482 -0.2120 -0.2366
vn -0.8458 -0.4492 -0.2879
vn -0.8540 -0.3731 -0.3626
usemtl None
s off
f 78//1 14//1 4//1 54//1
f 96//2 26//2 8//2 57//2
f 69//3 20//3 6//3 60//3
f 87//4 32//4 2//4 53//4
f 48//5 15//5 5//5 29//5
f 39//6 12//6 2//6 32//6
f 24//7 4//7 14//7 33//7
f 33//8 14//8 13//8 36//8
f 36//9 13//9 12//9 39//9
f 21//10 7//10 17//10 42//10
f 42//11 17//11 16//11 45//11
f 45//12 16//12 15//12 48//12
f 57//13 8//13 18//13 63//13
f 63//14 18//14 19//14 66//14
f 66//15 19//15 20//15 69//15
f 53//16 2//16 12//16 72//16
f 72//17 12//17 13//17 75//17
f 75//18 13//18 14//18 78//18
f 10//19 47//19 50//19 11//19
f 47//20 46//20 49//20 50//20
f 46//21 45//21 48//21 49//21
f 9//22 44//22 47//22 10//22
f 44//23 43//23 46//23 47//23
f 43//24 42//24 45//24 46//24
f 3//25 23//25 44//25 9//25
f 23//26 22//26 43//26 44//26
f 22//27 21//27 42//27 43//27
f 19//28 38//28 41//28 20//28
f 38//29 37//29 40//29 41//29
f 37//30 36//30 39//30 40//30
f 18//31 35//31 38//31 19//31
f 35//32 34//32 37//32 38//32
f 34//33 33//33 36//33 37//33
f 8//34 26//34 35//34 18//34
f 26//35 25//35 34//35 35//35
f 25//36 24//36 33//36 34//36
f 20//37 41//37 30//37 6//37
f 41//38 40//38 31//38 30//38
f 40//39 39//39 32//39 31//39
f 11//40 50//40 27//40 1//40
f 50//41 49//41 28//41 27//41
f 49//42 48//42 29//42 28//42
f 60//43 6//43 30//43 81//43
f 81//44 30//44 31//44 84//44
f 84//45 31//45 32//45 87//45
f 54//46 4//46 24//46 90//46
f 90//47 24//47 25//47 93//47
f 93//48 25//48 26//48 96//48
f 22//49 95//49 98//49 21//49
f 95//50 94//50 97//50 98//50
f 94//51 93//51 96//51 97//51
f 23//52 92//52 95//52 22//52
f 92//53 91//53 94//53 95//53
f 91//54 90//54 93//54 94//54
f 3//55 56//55 92//55 23//55
f 56//56 55//56 91//56 92//56
f 55//57 54//57 90//57 91//57
f 28//58 86//58 89//58 27//58
f 86//59 85//59 88//59 89//59
f 85//60 84//60 87//60 88//60
f 29//61 83//61 86//61 28//61
f 83//62 82//62 85//62 86//62
f 82//63 81//63 84//63 85//63
f 5//64 62//64 83//64 29//64
f 62//65 61//65 82//65 83//65
f 61//66 60//66 81//66 82//66
f 10//67 77//67 80//67 9//67
f 77//68 76//68 79//68 80//68
f 76//69 75//69 78//69 79//69
f 11//70 74//70 77//70 10//70
f 74//71 73//71 76//71 77//71
f 73//72 72//72 75//72 76//72
f 1//73 51//73 74//73 11//73
f 51//74 52//74 73//74 74//74
f 52//75 53//75 72//75 73//75
f 16//76 68//76 71//76 15//76
f 68//77 67//77 70//77 71//77
f 67//78 66//78 69//78 70//78
f 17//79 65//79 68//79 16//79
f 65//80 64//80 67//80 68//80
f 64//81 63//81 66//81 67//81
f 7//82 59//82 65//82 17//82
f 59//83 58//83 64//83 65//83
f 58//84 57//84 63//84 64//84
f 27//85 89//85 51//85 1//85
f 89//86 88//86 52//86 51//86
f 88//87 87//87 53//87 52//87
f 15//88 71//88 62//88 5//88
f 71//89 70//89 61//89 62//89
f 70//90 69//90 60//90 61//90
f 21//91 98//91 59//91 7//91
f 98//92 97//92 58//92 59//92
f 97//93 96//93 57//93 58//93
f 9//94 80//94 56//94 3//94
f 80//95 79//95 55//95 56//95
f 79//96 78//96 54//96 55//96
