# Blender v2.79 (sub 0) OBJ File: ''
# www.blender.org
o rocas_roca_05
v 0.447233 0.491079 -0.781533
v 0.072467 0.455506 -0.989752
v 0.060497 0.798926 -0.920184
v 0.392557 0.798926 -0.704724
v -0.345891 0.460032 -0.589142
v -0.368286 0.798135 -0.589097
v -0.456157 0.451632 0.125392
v -0.424409 0.798080 0.112934
v -0.640996 0.450988 0.468448
v -0.431877 0.730158 0.351641
v -0.641856 0.450988 0.907075
v -0.549315 0.798926 0.756126
v 0.225584 0.461707 0.830745
v 0.167184 0.787356 0.735231
v 0.378781 0.798926 -0.288124
v 0.479606 0.450988 -0.308262
v 0.063123 0.798926 -0.010844
v 0.516066 0.285845 -0.784093
v 0.086664 0.223396 -0.863543
v -0.287164 0.203467 -0.531256
v -0.456986 0.179539 0.129828
v -0.643302 0.179539 0.470309
v -0.644165 0.179539 0.910487
v 0.491192 0.179539 0.910552
v 0.481263 0.221819 -0.309148
v 0.385280 0.000000 -0.722378
v 0.056792 0.016056 -0.897637
v -0.332793 0.017116 -0.556738
v -0.425620 -0.000000 0.113902
v -0.596109 -0.000000 0.425459
v -0.596898 -0.000000 0.828243
v 0.408937 -0.000000 0.828302
v 0.375605 0.000000 -0.287781
v 0.374134 0.798636 0.281077
v 0.417036 0.467867 0.367244
v 0.481218 0.164442 0.312625
v 0.346387 -0.000000 0.280585
v 0.403063 0.798542 -0.011859
v 0.409342 0.466654 -0.001840
v 0.496447 0.167925 -0.007351
v 0.378422 -0.000000 -0.011956
vn 0.4904 0.2386 -0.8382
vn -0.6529 0.0443 -0.7561
vn -0.9931 0.0115 -0.1166
vn -0.9164 0.2975 -0.2679
vn -0.9145 0.3722 -0.1587
vn 0.0578 0.3405 0.9385
vn 0.9726 0.2321 -0.0099
vn 0.0000 1.0000 0.0000
vn -0.0009 1.0000 0.0000
vn 0.0009 1.0000 0.0002
vn -0.0018 1.0000 -0.0000
vn -0.0018 1.0000 -0.0001
vn 0.0682 0.9590 0.2750
vn -0.3076 0.9193 -0.2456
vn 0.0165 0.9998 0.0132
vn 0.0010 1.0000 0.0011
vn 0.3512 -0.1924 -0.9163
vn -0.6314 -0.3541 -0.6899
vn -0.9710 -0.1300 -0.2008
vn -0.8788 -0.0005 -0.4772
vn -1.0000 0.0085 -0.0020
vn 0.0366 0.1656 0.9855
vn 0.9869 0.1600 0.0201
vn 0.5216 -0.7481 -0.4103
vn -0.1953 -0.5731 -0.7958
vn 0.3232 -0.1576 -0.9331
vn -0.7117 -0.5743 -0.4046
vn -0.6463 0.2339 -0.7264
vn -0.6120 -0.7606 -0.2167
vn -0.9797 0.0598 -0.1914
vn -0.6642 -0.7189 -0.2050
vn -0.8719 -0.1100 -0.4771
vn -0.5074 -0.7455 0.4321
vn -0.9673 -0.2538 -0.0019
vn 0.4171 -0.8100 0.4123
vn -0.0001 -0.4165 0.9091
vn 0.9073 -0.4202 0.0148
vn 0.5066 -0.8617 -0.0283
vn -0.0157 0.9997 0.0177
vn 0.8876 0.2449 0.3900
vn 0.8597 0.4903 0.1429
vn 0.4358 -0.9000 0.0056
vn 0.8517 -0.5219 -0.0470
vn 0.0011 1.0000 -0.0002
vn 0.0011 1.0000 0.0005
vn 0.9964 0.0786 0.0318
vn 0.9701 0.2426 0.0114
vn 0.7915 -0.6085 0.0576
vn 0.4819 -0.8762 -0.0104
vn 0.9853 0.1541 0.0737
vn 0.9815 0.1638 0.0992
vn 0.8636 -0.4988 -0.0735
s 1
f 1//1 2//1 3//1 4//1
f 2//2 5//2 6//2 3//2
f 5//3 7//3 8//3 6//3
f 7//4 9//4 10//4 8//4
f 9//5 11//5 12//5 10//5
f 11//6 13//6 14//6 12//6
f 15//7 16//7 1//7 4//7
f 4//8 3//9 17//10
f 3//9 6//11 17//10
f 6//11 8//12 17//10
f 8//13 10//13 17//13
f 10//14 12//14 17//14
f 12//15 14//15 17//15
f 17//10 15//16 4//8
f 18//17 19//17 2//17 1//17
f 19//18 20//18 5//18 2//18
f 20//19 21//19 7//19 5//19
f 21//20 22//20 9//20 7//20
f 22//21 23//21 11//21 9//21
f 23//22 24//22 13//22 11//22
f 16//23 25//23 18//23 1//23
f 26//24 27//25 19//26 18//26
f 27//25 28//27 20//28 19//28
f 28//27 29//29 21//30 20//30
f 29//29 30//31 22//32 21//32
f 30//31 31//33 23//34 22//34
f 31//33 32//35 24//36 23//36
f 25//37 33//38 26//24 18//37
f 14//39 34//39 17//39
f 13//40 35//40 34//40 14//40
f 24//41 36//41 35//41 13//41
f 32//35 37//42 36//43 24//43
f 17//10 34//44 38//45
f 34//46 35//46 39//46 38//46
f 35//47 36//47 40//47 39//47
f 36//48 37//42 41//49 40//48
f 17//10 38//45 15//16
f 38//50 39//50 16//50 15//50
f 39//51 40//51 25//51 16//51
f 40//52 41//49 33//38 25//52
f 31//33 30//31 37//42 32//35
f 37//42 30//31 29//29 41//49
f 41//49 29//29 28//27 33//38
f 28//27 27//25 26//24 33//38
