# Blender v2.79 (sub 0) OBJ File: ''
# www.blender.org
o rocas_roca_02
v 0.549175 0.001878 -0.465649
v -0.192011 0.001878 -0.700328
v -0.205782 0.576344 -0.745718
v 0.584370 0.453128 -0.495536
v -0.626129 0.001878 -0.323711
v -0.668580 0.139295 -0.344221
v -0.565613 0.001878 0.673846
v -0.604065 0.286619 0.719239
v 0.175574 0.001878 0.670194
v 0.186087 0.286619 0.715344
v 0.659003 0.001878 0.145646
v 0.701453 0.139295 0.156143
v -0.173861 0.684384 -0.640499
v 0.502788 0.684384 -0.426255
v -0.570179 0.593862 -0.296676
v -0.514931 0.511960 0.614020
v 0.161717 0.511960 0.610685
v 0.603052 0.593862 0.131812
v 0.007913 0.635602 -0.091842
vn 0.5583 -0.6523 -0.5127
vn -0.1367 -0.6518 -0.7459
vn 0.2954 -0.0761 -0.9523
vn -0.6733 -0.6785 -0.2938
vn -0.6163 -0.1207 -0.7782
vn -0.5044 -0.6699 0.5449
vn -0.9787 -0.1919 0.0731
vn 0.2883 -0.6954 0.6582
vn 0.0049 -0.1568 0.9876
vn 0.7060 -0.6791 0.2011
vn 0.7113 -0.1788 0.6798
vn 0.9689 -0.1346 -0.2075
vn 0.3020 0.4706 -0.8291
vn -0.7262 0.3317 -0.6022
vn -0.9617 0.2695 0.0494
vn 0.0045 0.4216 0.9068
vn 0.7194 0.2527 0.6471
vn 0.9622 0.2582 -0.0866
vn -0.0313 0.9946 0.0988
vn -0.1158 0.9853 0.1260
vn -0.1053 0.9899 0.0954
vn 0.0009 0.9849 0.1732
vn 0.0040 0.9850 0.1725
vn 0.0010 0.9849 0.1731
vn 0.0043 0.9850 0.1724
vn 0.0097 0.9873 0.1584
s 1
f 1//1 2//2 3//3 4//3
f 2//2 5//4 6//5 3//5
f 5//4 7//6 8//7 6//7
f 7//6 9//8 10//9 8//9
f 9//8 11//10 12//11 10//11
f 11//10 1//1 4//12 12//12
f 4//13 3//13 13//13 14//13
f 3//14 6//14 15//14 13//14
f 6//15 8//15 16//15 15//15
f 8//16 10//16 17//16 16//16
f 10//17 12//17 18//17 17//17
f 12//18 4//18 14//18 18//18
f 14//19 13//19 19//19
f 13//20 15//20 19//20
f 15//21 16//21 19//21
f 16//22 17//23 19//24
f 17//23 18//25 19//24
f 18//26 14//26 19//26
f 1//1 11//10 9//8 2//2
f 5//4 2//2 9//8 7//6
