# Blender v2.79 (sub 0) OBJ File: ''
# www.blender.org
o roca_01_rocas
v 0.634720 0.174512 -1.115459
v -0.678405 0.174512 -0.790820
v -0.559575 0.265502 -0.654920
v 0.487266 0.265502 -0.913726
v -0.939755 0.174512 0.126353
v -0.767926 0.265502 0.076263
v -0.466685 0.174512 0.874149
v -0.390788 0.265502 0.672416
v 0.648834 0.174512 0.718887
v 0.498518 0.265502 0.548639
v 0.754922 0.174512 0.126353
v 0.583093 0.265502 0.076263
v -0.137426 0.265502 0.076263
v 0.701074 0.004492 -1.206239
v -0.731879 0.004492 -0.851975
v -1.017079 0.004492 0.148893
v -0.500838 0.004492 0.964929
v 0.716476 0.004492 0.795498
v 0.832245 0.004492 0.148893
vn -0.1184 0.8699 -0.4789
vn -0.4951 0.8573 -0.1411
vn -0.3952 0.8839 0.2500
vn 0.0597 0.9013 0.4290
vn 0.4481 0.8904 0.0802
vn 0.4780 0.8772 -0.0463
vn 0.0000 1.0000 0.0000
vn 0.5423 -0.3553 -0.7614
vn -0.6203 -0.4392 -0.6499
vn -0.2209 0.3909 -0.8935
vn -0.8792 -0.4557 0.1389
vn -0.8926 0.3722 -0.2544
vn -0.3761 -0.4057 0.8330
vn -0.7691 0.4143 0.4866
vn 0.6338 -0.3909 0.6675
vn 0.1232 0.4480 0.8855
vn 0.8601 -0.5084 0.0421
vn 0.8905 0.4261 0.1594
vn 0.9111 0.4027 -0.0882
s 1
f 1//1 2//1 3//1 4//1
f 2//2 5//2 6//2 3//2
f 5//3 7//3 8//3 6//3
f 7//4 9//4 10//4 8//4
f 9//5 11//5 12//5 10//5
f 11//6 1//6 4//6 12//6
f 4//7 3//7 13//7
f 3//7 6//7 13//7
f 6//7 8//7 13//7
f 8//7 10//7 13//7
f 10//7 12//7 13//7
f 12//7 4//7 13//7
f 14//8 15//9 2//10 1//10
f 15//9 16//11 5//12 2//12
f 16//11 17//13 7//14 5//14
f 17//13 18//15 9//16 7//16
f 18//15 19//17 11//18 9//18
f 19//17 14//8 1//19 11//19
f 14//8 19//17 18//15 15//9
f 17//13 16//11 15//9 18//15
