# Blender v2.79 (sub 0) OBJ File: ''
# www.blender.org
o rocas_roca_03
v 0.952860 0.277829 -0.443079
v 0.605971 0.263564 -0.906949
v 0.581741 0.524545 -0.876547
v 0.914528 0.551916 -0.431535
v -0.486778 0.263564 -0.628117
v -0.466584 0.524545 -0.609050
v -0.637798 0.435808 -0.371075
v -0.665247 0.217315 -0.367464
v -0.932951 0.177406 0.021145
v -0.894619 0.359235 -0.018660
v -0.524348 0.177406 0.535819
v -0.502627 0.359235 0.475091
v -0.212513 0.177406 0.433660
v -0.203145 0.359235 0.377323
v 0.008274 0.177406 0.595816
v 0.008342 0.359235 0.532650
v 0.403394 0.435808 0.390348
v 0.419746 0.217315 0.426372
v 0.830579 0.263564 0.248557
v 0.797218 0.524545 0.231984
v 0.283054 0.552768 -0.209351
v -0.133925 0.467475 0.048347
v 0.907207 -0.000340 -0.428884
v 0.577113 -0.000340 -0.870294
v -0.462727 -0.000340 -0.604963
v -0.632556 -0.000340 -0.344946
v -0.887298 -0.000340 0.045079
v -0.498478 -0.000340 0.534834
v -0.202063 -0.000340 0.437385
v 0.008355 -0.000340 0.591926
v 0.399600 -0.000340 0.410595
v 0.790847 -0.000340 0.229265
vn 0.7900 0.1392 -0.5971
vn -0.2463 0.0896 -0.9651
vn -0.8194 0.0730 -0.5685
vn -0.7499 0.2884 0.5954
vn 0.2994 0.2691 0.9154
vn -0.5700 0.2698 0.7761
vn 0.3619 0.1386 0.9219
vn 0.9754 0.1323 0.1765
vn -0.0160 0.9986 -0.0494
vn -0.1265 0.9595 0.2516
vn 0.3196 0.2401 0.9166
vn 0.0169 0.9989 0.0442
vn -0.0573 0.9977 0.0370
vn -0.1478 0.9836 0.1032
vn -0.1420 0.9852 0.0963
vn -0.1434 0.9848 0.0979
vn -0.0954 0.9814 0.1665
vn -0.1010 0.9725 0.2099
vn -0.1491 0.9832 0.1049
vn -0.8272 0.1000 -0.5530
vn 0.7029 -0.6919 -0.1647
vn 0.2353 -0.6610 -0.7125
vn 0.7912 -0.1640 -0.5891
vn -0.4142 -0.6841 -0.6004
vn -0.2458 -0.1069 -0.9634
vn -0.5258 -0.7705 -0.3603
vn -0.8157 -0.1491 -0.5589
vn -0.8039 -0.2240 -0.5509
vn -0.7379 -0.6715 0.0679
vn -0.1881 -0.6132 0.7672
vn -0.7778 -0.1166 0.6175
vn -0.0995 -0.8232 0.5590
vn 0.3116 0.0391 0.9494
vn -0.0857 -0.6278 0.7736
vn -0.5919 -0.0179 0.8058
vn 0.2754 -0.7385 0.6154
vn 0.4023 -0.0658 0.9131
vn 0.4115 -0.1170 0.9039
vn 0.5799 -0.6732 0.4588
vn 0.9731 -0.1549 0.1704
s 1
f 1//1 2//1 3//1 4//1
f 2//2 5//2 6//2 3//2
f 7//3 8//3 9//3 10//3
f 9//4 11//4 12//4 10//4
f 11//5 13//5 14//5 12//5
f 13//6 15//6 16//6 14//6
f 17//7 18//7 19//7 20//7
f 19//8 1//8 4//8 20//8
f 3//9 21//9 4//9
f 17//10 22//10 14//10 16//10
f 15//11 18//11 17//11 16//11
f 4//12 21//12 20//12
f 3//13 6//13 7//13 21//13
f 22//14 21//15 7//16
f 14//17 22//17 10//17 12//17
f 20//18 21//18 22//18 17//18
f 10//19 22//14 7//16
f 5//20 8//20 7//20 6//20
f 23//21 24//22 2//23 1//23
f 24//22 25//24 5//25 2//25
f 25//24 26//26 8//27 5//27
f 9//28 8//28 26//26 27//29
f 27//29 28//30 11//31 9//31
f 28//30 29//32 13//33 11//33
f 29//32 30//34 15//35 13//35
f 30//34 31//36 18//37 15//37
f 19//38 18//38 31//36 32//39
f 32//39 23//21 1//40 19//40
f 23//21 32//39 31//36 24//22
f 24//22 31//36 30//34 25//24
f 25//24 30//34 29//32 26//26
f 26//26 29//32 28//30 27//29
