# Blender v2.79 (sub 0) OBJ File: ''
# www.blender.org
o rocas_roca_04
v 0.283711 0.512228 0.146707
v 0.130972 0.571013 0.146707
v 0.130972 0.335523 0.146707
v 0.317768 0.335523 0.146707
v 0.130972 1.098719 -0.176692
v 0.130972 1.098719 0.029986
v 0.283711 1.098719 0.029986
v 0.283711 1.098719 -0.176692
v 0.317768 0.335523 -0.176693
v 0.130972 0.335523 -0.176693
v 0.130972 0.571013 -0.176693
v 0.283711 0.512228 -0.176693
v 0.130972 0.008439 0.029985
v 0.130972 0.008439 -0.176693
v 0.283711 0.008439 -0.176693
v 0.283711 0.008439 0.029985
v 0.317768 0.335523 0.029985
v 0.283711 0.512228 0.029985
v -0.488557 0.335523 -0.176693
v -0.488557 0.335523 0.029985
v -0.376199 0.564482 0.029985
v -0.376199 0.564482 -0.176693
v 0.043749 0.008439 0.029985
v 0.043749 0.008439 -0.176693
v 0.043749 0.335523 -0.176693
v 0.043749 0.606938 -0.176693
v 0.043749 1.242149 -0.176692
v 0.043749 1.242149 0.029986
v 0.043749 0.606938 0.146707
v 0.043749 0.335523 0.146707
v -0.082235 0.008439 0.029985
v -0.082235 0.008439 -0.176693
v -0.115943 0.335523 -0.176693
v -0.082235 0.659191 -0.176693
v -0.082235 1.231139 -0.176692
v -0.082235 1.231139 0.029986
v -0.082235 0.659191 0.146707
v -0.115943 0.335523 0.146707
v -0.082235 0.008439 0.146707
v 0.043749 0.008439 0.146707
v 0.130972 0.008439 0.146707
v 0.283711 0.008439 0.146707
v -0.376199 0.008439 -0.176693
v -0.376199 0.008439 0.029985
v -0.082235 0.875320 -0.176693
v 0.043749 0.875320 -0.176693
v 0.130972 0.875319 -0.176693
v 0.306799 0.875319 -0.176693
v 0.306799 0.875319 0.029985
v 0.130972 0.875319 0.029985
v 0.130972 0.571013 0.029985
v 0.043749 0.875320 0.029985
v 0.043749 0.606938 0.029985
v -0.082235 0.875320 0.029985
v -0.082235 0.659191 0.029985
v -0.406296 0.875320 0.029985
v -0.406296 0.875320 -0.176693
v -0.376199 1.212753 0.029986
v -0.376199 1.212753 -0.176692
v -0.488557 0.335523 0.146707
v -0.376199 0.564482 0.146707
v -0.376199 0.008439 0.146707
vn -0.0000 -0.0000 1.0000
vn 0.0000 1.0000 0.0000
vn 0.0000 0.0000 -1.0000
vn 0.0000 -1.0000 -0.0000
vn 0.9819 0.1893 0.0000
vn -0.8977 0.4405 0.0000
vn 0.8544 0.5196 0.0000
vn -0.0871 0.9962 0.0000
vn 0.9946 -0.1036 -0.0000
vn -0.9458 -0.3249 -0.0000
vn 0.9980 -0.0635 0.0000
vn -0.9953 -0.0964 0.0000
vn -0.0624 0.9980 0.0000
vn 0.3592 0.9333 0.0000
vn 0.3808 0.9246 0.0000
vn 0.3820 0.9242 0.0000
vn 0.3831 0.9237 0.0000
vn -0.3067 0.9518 0.0000
vn 0.9947 0.1028 0.0000
vn -0.9960 0.0888 0.0000
s 1
f 1//1 2//1 3//1 4//1
f 5//2 6//2 7//2 8//2
f 9//3 10//3 11//3 12//3
f 13//4 14//4 15//4 16//4
f 17//5 9//5 12//5 18//5
f 19//6 20//6 21//6 22//6
f 23//4 24//4 14//4 13//4
f 10//3 25//3 26//3 11//3
f 27//7 28//7 6//7 5//7
f 2//1 29//1 30//1 3//1
f 31//4 32//4 24//4 23//4
f 33//3 34//3 26//3 25//3
f 35//8 36//8 28//8 27//8
f 37//1 38//1 30//1 29//1
f 38//1 39//1 40//1 30//1
f 3//1 30//1 40//1 41//1
f 4//1 3//1 41//1 42//1
f 16//9 15//9 9//9 17//9
f 14//3 10//3 9//3 15//3
f 24//3 25//3 10//3 14//3
f 32//3 33//3 25//3 24//3
f 43//10 44//10 20//10 19//10
f 34//3 45//3 46//3 26//3
f 11//3 26//3 46//3 47//3
f 12//3 11//3 47//3 48//3
f 18//11 12//11 48//11 49//11
f 49//1 50//1 51//1 18//1
f 50//1 52//1 53//1 51//1
f 52//1 54//1 55//1 53//1
f 22//12 21//12 56//12 57//12
f 43//4 32//4 31//4 44//4
f 19//3 33//3 32//3 43//3
f 22//3 34//3 33//3 19//3
f 57//3 45//3 34//3 22//3
f 58//13 36//13 35//13 59//13
f 21//1 55//1 54//1 56//1
f 60//1 38//1 37//1 61//1
f 62//1 39//1 38//1 60//1
f 18//14 51//14 2//14 1//14
f 17//5 18//5 1//5 4//5
f 51//15 53//16 29//16 2//15
f 53//16 55//17 37//17 29//16
f 31//4 23//4 40//4 39//4
f 23//4 13//4 41//4 40//4
f 13//4 16//4 42//4 41//4
f 16//9 17//9 4//9 42//9
f 55//18 21//18 61//18 37//18
f 21//6 20//6 60//6 61//6
f 44//4 31//4 39//4 62//4
f 20//10 44//10 62//10 60//10
f 59//3 35//3 45//3 57//3
f 46//3 45//3 35//3 27//3
f 47//3 46//3 27//3 5//3
f 48//3 47//3 5//3 8//3
f 49//19 48//19 8//19 7//19
f 6//1 50//1 49//1 7//1
f 28//1 52//1 50//1 6//1
f 36//1 54//1 52//1 28//1
f 56//1 54//1 36//1 58//1
f 57//20 56//20 58//20 59//20
