# This file uses centimeters as units for non-parametric coordinates.

mtllib tronco.mtl
g default
v 1.726868 0.718216 -0.295117
v 1.726868 0.425601 -0.416322
v 1.726868 0.132987 -0.295117
v 1.726868 0.132987 0.290111
v 1.726868 0.425601 0.411316
v 1.726868 0.718216 0.290111
v -1.781018 0.913027 -0.361548
v -1.587903 0.621590 -0.499635
v -1.781018 0.180821 -0.369351
v -1.781018 0.200442 0.351036
v -1.781018 0.550825 0.516316
v -1.781018 1.049779 0.000653
v 1.726867 0.656240 -0.233141
v 1.726867 0.425601 -0.328675
v -1.587902 0.621590 -0.400391
v -1.781017 0.825962 -0.274484
v 1.726867 0.194963 -0.233141
v -1.781016 0.283491 -0.266681
v 1.726867 0.194963 0.228135
v -1.781017 0.263870 0.287609
v 1.726867 0.425601 0.323669
v -1.781017 0.550825 0.386323
v 1.726867 0.656240 0.228135
v -1.781017 0.953203 0.000653
v -1.781018 0.939441 0.242616
v -1.478264 0.907238 0.357066
v -1.781018 0.795761 0.394043
v -1.781017 0.878746 0.204827
v -1.478263 0.831750 0.281578
v -1.781017 0.752026 0.323800
v -1.781017 0.199716 -0.081003
v -1.478263 0.153537 0.000653
v -1.781017 0.171526 0.088866
v -1.781018 0.107990 0.103642
v -1.478264 0.046781 0.000653
v -1.781018 0.079800 -0.108892
v -0.022431 0.153860 0.489949
v -0.022431 0.500944 0.643610
v -0.022431 0.993483 0.142865
v -0.022431 0.853832 -0.210022
v -0.022431 0.535694 -0.350329
v -0.022431 0.144225 -0.213854
v -0.022431 0.893423 0.492911
v -0.022431 0.005905 0.142865
v -0.022434 0.232512 -0.114203
v -0.022433 0.531819 -0.234375
v -0.022434 0.750790 -0.118891
v -0.022434 0.867075 0.142592
v -0.022433 0.219788 0.409487
v -0.022433 0.486683 0.508392
v -0.022428 0.112096 0.142592
v -0.022425 0.710353 0.391237
v 1.726868 0.803059 0.085281
v 1.202078 0.885639 0.040357
v 1.726868 0.803059 -0.090287
v 1.726867 0.723113 0.066689
v 1.202076 0.786364 0.040275
v 1.726867 0.723113 -0.071695
v -1.781017 1.001041 0.000653
v 1.726867 0.128090 0.066689
v 1.202078 0.103229 0.040275
v 1.726867 0.128090 -0.071695
v 1.726868 0.048144 0.085281
v 1.202078 0.010019 0.040357
v 1.726868 0.048144 -0.090287
v -0.827107 1.102567 -0.004593
v -0.827107 0.942849 -0.419040
v -0.827105 0.592103 -0.579959
v -0.827107 0.106930 -0.426064
v -0.827107 0.124587 0.399257
v -0.827107 0.528383 0.540620
v -0.827107 0.950445 0.388963
v -0.827107 -0.050636 -0.028457
v -0.827110 0.223462 -0.339536
v -0.827108 0.606939 -0.491788
v -0.827110 0.851302 -0.347653
v -0.827110 0.996824 -0.029674
v -0.827109 0.201438 0.306463
v -0.827109 0.528247 0.421692
v -0.827108 0.845980 0.287065
v -0.827105 0.073245 -0.010780
v 0.715956 0.804424 -0.187500
v 0.715956 0.495585 -0.374372
v 0.715956 0.140131 -0.243460
v 0.715956 0.008141 0.087159
v 0.715956 0.145461 0.409537
v 0.715957 0.469722 0.600214
v 0.715957 0.795319 0.407879
v 0.636935 0.982114 0.071914
v 0.715956 0.219005 -0.156986
v 0.715956 0.493612 -0.268295
v 0.715956 0.716780 -0.159988
v 0.715956 0.107397 0.088369
v 0.715956 0.210189 0.339363
v 0.715956 0.462592 0.435536
v 0.715956 0.689106 0.327197
v 0.715956 0.824196 0.088234
vt 0.375000 0.312500
vt 0.406250 0.312500
vt 0.437500 0.312500
vt 0.500000 0.312500
vt 0.531250 0.312500
vt 0.562500 0.312500
vt 0.625000 0.312500
vt 0.375000 0.688440
vt 0.406250 0.688440
vt 0.437500 0.688440
vt 0.500000 0.688440
vt 0.531250 0.688440
vt 0.593750 0.688440
vt 0.625000 0.688440
vt 0.375000 0.312500
vt 0.406250 0.312500
vt 0.406250 0.688440
vt 0.375000 0.688440
vt 0.437500 0.312500
vt 0.437500 0.688440
vt 0.500000 0.312500
vt 0.500000 0.688440
vt 0.531250 0.312500
vt 0.531250 0.688440
vt 0.562500 0.312500
vt 0.593750 0.688440
vt 0.625000 0.312500
vt 0.625000 0.688440
vt 0.375000 0.312500
vt 0.406250 0.312500
vt 0.406250 0.688440
vt 0.375000 0.688440
vt 0.437500 0.312500
vt 0.437500 0.688440
vt 0.500000 0.312500
vt 0.500000 0.688440
vt 0.531250 0.312500
vt 0.531250 0.688440
vt 0.562500 0.312500
vt 0.593750 0.688440
vt 0.625000 0.312500
vt 0.625000 0.688440
vt 0.571875 0.688440
vt 0.562500 0.575658
vt 0.553125 0.688440
vt 0.571875 0.688440
vt 0.562500 0.575658
vt 0.553125 0.688440
vt 0.459375 0.688440
vt 0.468750 0.575658
vt 0.478125 0.688440
vt 0.478125 0.688440
vt 0.468750 0.575658
vt 0.459375 0.688440
vt 0.500000 0.500470
vt 0.531250 0.500470
vt 0.593750 0.500470
vt 0.625000 0.500470
vt 0.375000 0.500470
vt 0.406250 0.500470
vt 0.437500 0.500470
vt 0.562500 0.451610
vt 0.468750 0.456995
vt 0.437500 0.526923
vt 0.406250 0.526923
vt 0.375000 0.526923
vt 0.625000 0.526923
vt 0.593750 0.526923
vt 0.500000 0.518821
vt 0.531250 0.518821
vt 0.468750 0.429633
vt 0.562500 0.402954
vt 0.584375 0.312500
vt 0.593750 0.368891
vt 0.603125 0.312500
vt 0.584375 0.312500
vt 0.593750 0.376827
vt 0.603125 0.312500
vt 0.593750 0.688440
vt 0.478125 0.312500
vt 0.468750 0.347640
vt 0.459375 0.312500
vt 0.478125 0.312500
vt 0.468750 0.355849
vt 0.459375 0.312500
vt 0.593750 0.602615
vt 0.625000 0.602615
vt 0.375000 0.602615
vt 0.406250 0.602615
vt 0.437500 0.602615
vt 0.500000 0.602552
vt 0.531250 0.602552
vt 0.562500 0.535576
vt 0.468750 0.539397
vt 0.437500 0.640236
vt 0.406250 0.640236
vt 0.375000 0.640236
vt 0.625000 0.640236
vt 0.593750 0.640236
vt 0.500000 0.627787
vt 0.531250 0.627787
vt 0.562500 0.527500
vt 0.468750 0.514585
vt 0.625000 0.431988
vt 0.375000 0.431988
vt 0.406250 0.431988
vt 0.437500 0.431988
vt 0.468750 0.402029
vt 0.500000 0.424833
vt 0.531250 0.422574
vt 0.562500 0.393283
vt 0.593750 0.409398
vt 0.437500 0.449793
vt 0.406250 0.449793
vt 0.375000 0.449793
vt 0.625000 0.449793
vt 0.468750 0.386181
vt 0.500000 0.439042
vt 0.531250 0.437446
vt 0.562500 0.367438
vt 0.593750 0.447182
vn -0.110911 -0.485354 0.867254
vn -0.112154 -0.485289 0.867131
vn 0.086490 -0.486099 0.869613
vn 0.086490 -0.486099 0.869613
vn -0.074928 0.356042 0.931461
vn -0.057560 0.355195 0.933018
vn 0.104354 0.342151 0.933832
vn 0.104354 0.342151 0.933832
vn -0.050849 0.906581 0.418958
vn -0.057846 0.906233 0.418802
vn -0.001302 0.916294 0.400504
vn -0.015157 0.915256 0.402587
vn 0.004228 0.926860 -0.375382
vn 0.005384 0.926875 -0.375332
vn 0.049558 0.933490 -0.355163
vn 0.047887 0.933039 -0.356574
vn -0.092634 0.367298 -0.925479
vn -0.088286 0.360208 -0.928685
vn -0.087903 0.359581 -0.928964
vn -0.092634 0.367298 -0.925479
vn -0.067560 -0.907641 0.414274
vn -0.079340 -0.906966 0.413664
vn 0.055421 -0.907135 0.417175
vn 0.055421 -0.907135 0.417175
vn 0.104309 0.404983 -0.908355
vn 0.105219 0.404961 -0.908259
vn -0.073409 0.402732 -0.912369
vn -0.073409 0.402732 -0.912369
vn 0.062445 -0.292345 -0.954272
vn 0.076233 -0.293602 -0.952883
vn -0.093032 -0.274345 -0.957121
vn -0.093032 -0.274345 -0.957121
vn 0.071063 -0.928452 -0.364591
vn 0.063889 -0.928890 -0.364805
vn 0.018376 -0.939490 -0.342083
vn 0.003548 -0.940654 -0.339347
vn 0.005815 -0.921669 0.387934
vn 0.006911 -0.921591 0.388100
vn -0.057874 -0.927754 0.368677
vn -0.061579 -0.928069 0.367282
vn -0.080183 -0.370493 0.925368
vn -0.080270 -0.370474 0.925368
vn -0.054540 -0.376089 0.924977
vn -0.054540 -0.376089 0.924977
vn 0.139592 0.438150 0.887997
vn 0.139525 0.438122 0.888021
vn -0.009077 0.383796 0.923373
vn 0.000867 0.387598 0.921828
vn 0.125731 0.912436 0.389425
vn 0.123661 0.913979 0.386459
vn 0.076607 0.935975 0.343629
vn 0.078446 0.935297 0.345058
vn 0.065390 0.931001 -0.359113
vn 0.053988 0.931758 -0.359042
vn -0.052110 0.932976 -0.356146
vn -0.052110 0.932976 -0.356146
vn 1.000000 -0.000005 0.000012
vn 1.000000 -0.000005 0.000012
vn 1.000000 -0.000005 0.000012
vn 1.000000 -0.000005 0.000012
vn -0.823645 -0.513778 -0.240086
vn -0.823645 -0.513778 -0.240086
vn -0.823645 -0.513778 -0.240086
vn -0.823645 -0.513778 -0.240086
vn 1.000000 0.000005 0.000012
vn 1.000000 0.000005 0.000012
vn 1.000000 0.000005 0.000012
vn 1.000000 0.000005 0.000012
vn -0.903443 0.382147 -0.194304
vn -0.903443 0.382147 -0.194304
vn -0.903443 0.382147 -0.194304
vn -0.903443 0.382147 -0.194304
vn 1.000000 0.000012 0.000005
vn 1.000000 0.000012 0.000005
vn 1.000000 0.000012 0.000005
vn 1.000000 0.000012 0.000005
vn -1.000000 0.000010 -0.000004
vn -1.000000 0.000010 -0.000004
vn -1.000000 0.000010 -0.000004
vn -1.000000 0.000010 -0.000004
vn 1.000000 0.000005 -0.000012
vn 1.000000 0.000005 -0.000012
vn 1.000000 0.000005 -0.000012
vn 1.000000 0.000005 -0.000012
vn -1.000000 0.000004 -0.000010
vn -1.000000 0.000004 -0.000010
vn -1.000000 0.000004 -0.000010
vn -1.000000 0.000004 -0.000010
vn 1.000000 -0.000005 -0.000012
vn 1.000000 -0.000005 -0.000012
vn 1.000000 -0.000005 -0.000012
vn 1.000000 -0.000005 -0.000012
vn -1.000000 -0.000011 -0.000006
vn -1.000000 -0.000011 -0.000006
vn -1.000000 -0.000011 -0.000006
vn -1.000000 -0.000011 -0.000006
vn -1.000000 -0.000011 -0.000006
vn -1.000000 -0.000011 0.000005
vn -1.000000 -0.000011 0.000005
vn -1.000000 -0.000011 0.000005
vn -1.000000 -0.000011 0.000005
vn -1.000000 -0.000011 0.000005
vn -0.069112 -0.868090 -0.491573
vn -0.069994 -0.866889 -0.493563
vn -0.022324 -0.894347 -0.446817
vn -0.017239 -0.896389 -0.442934
vn -0.003315 -0.432414 -0.901669
vn -0.009716 -0.433459 -0.901121
vn 0.035745 -0.395088 -0.917948
vn 0.033316 -0.392577 -0.919116
vn -1.000000 -0.000004 -0.000009
vn -1.000000 -0.000004 -0.000009
vn -1.000000 -0.000004 -0.000009
vn -1.000000 -0.000004 -0.000009
vn -0.310295 -0.607930 0.730847
vn -0.310295 -0.607930 0.730847
vn -0.310295 -0.607930 0.730847
vn -0.310295 -0.607930 0.730847
vn -0.310996 0.735604 -0.601804
vn -0.310996 0.735604 -0.601804
vn -0.310996 0.735604 -0.601804
vn -0.310996 0.735604 -0.601804
vn -1.000000 0.000010 0.000003
vn -1.000000 0.000010 0.000003
vn -1.000000 0.000010 0.000003
vn -1.000000 0.000010 0.000003
vn -0.312846 -0.115982 0.942696
vn -0.312846 -0.115982 0.942696
vn -0.312846 -0.115982 0.942696
vn -0.312846 -0.115982 0.942696
vn -0.309856 -0.082189 -0.947224
vn -0.309856 -0.082189 -0.947224
vn -0.309856 -0.082189 -0.947224
vn -0.309856 -0.082189 -0.947224
vn 0.097178 -0.451242 0.887095
vn 0.093997 -0.451652 0.887229
vn -0.032465 -0.407243 0.912743
vn -0.031922 -0.407534 0.912632
vn 0.039274 0.892419 -0.449494
vn 0.047386 0.894081 -0.445392
vn 0.126923 0.908730 -0.397619
vn 0.121755 0.908053 -0.400768
vn -0.004025 0.458997 -0.888429
vn -0.006885 0.458656 -0.888587
vn 0.161659 0.429602 -0.888430
vn 0.163998 0.428950 -0.888317
vn -0.050969 -0.350170 -0.935299
vn -0.051110 -0.350453 -0.935185
vn 0.121606 -0.322132 -0.938852
vn 0.131794 -0.320932 -0.937888
vn -0.008031 0.934214 0.356623
vn -0.014364 0.932608 0.360606
vn -0.061294 0.918995 0.389475
vn -0.061294 0.918995 0.389475
vn -0.061294 0.918995 0.389475
vn -0.070437 0.368500 0.926956
vn -0.068736 0.369694 0.926608
vn -0.039239 0.390100 0.919936
vn -0.039239 0.390100 0.919936
vn -0.039239 0.390100 0.919936
vn 0.071164 0.375728 0.923994
vn 0.070991 0.375688 0.924023
vn -0.131625 0.368744 0.920164
vn -0.116581 0.369608 0.921845
vn 0.029832 -0.426313 0.904083
vn 0.029316 -0.428296 0.903163
vn -0.160445 -0.465918 0.870160
vn -0.157836 -0.465824 0.870687
vn 0.029592 0.344517 -0.938313
vn 0.027817 0.344646 -0.938321
vn 0.074642 0.332774 -0.940048
vn 0.074481 0.332755 -0.940067
vn -0.027432 0.925452 -0.377870
vn -0.027432 0.925452 -0.377870
vn -0.025406 0.925764 -0.377247
vn -0.025135 0.925805 -0.377164
vn -0.027432 0.925452 -0.377870
vn 0.048586 0.913536 0.403846
vn 0.044219 0.910729 0.410631
vn 0.043821 0.910470 0.411247
vn 0.048586 0.913536 0.403846
vn 0.048586 0.913536 0.403846
vn -0.108705 -0.404881 -0.907885
vn -0.103379 -0.422476 -0.900459
vn -0.103481 -0.422144 -0.900603
vn -0.108705 -0.404881 -0.907885
vn -0.087081 -0.896098 -0.435231
vn -0.082886 -0.877394 -0.472556
vn -0.083185 -0.878756 -0.469966
vn -0.087081 -0.896098 -0.435231
vn -0.087081 -0.896098 -0.435231
vn -0.029071 -0.920956 0.388581
vn -0.029071 -0.920956 0.388581
vn -0.025424 -0.918276 0.395125
vn -0.025858 -0.918597 0.394348
vn -0.029071 -0.920956 0.388581
vn 1.000000 -0.000012 -0.000005
vn 1.000000 -0.000012 -0.000005
vn 1.000000 -0.000012 -0.000005
vn 1.000000 -0.000012 -0.000005
vn 1.000000 -0.000012 0.000006
vn 1.000000 -0.000012 0.000006
vn 1.000000 -0.000012 0.000006
vn 1.000000 -0.000012 0.000006
vn 0.081728 0.103291 -0.991288
vn 0.081728 0.103291 -0.991288
vn 0.081728 0.103291 -0.991288
vn 0.081728 0.103291 -0.991288
vn 0.237232 0.099802 0.966313
vn 0.237232 0.099802 0.966313
vn 0.237232 0.099802 0.966313
vn 0.237232 0.099802 0.966313
vn 0.034357 -0.920941 0.388184
vn 0.034139 -0.920789 0.388564
vn -0.025447 -0.927753 -0.372327
vn -0.025226 -0.927940 -0.371876
vn 1.000000 0.000012 -0.000006
vn 1.000000 0.000012 -0.000006
vn 1.000000 0.000012 -0.000006
vn 1.000000 0.000012 -0.000006
vn 0.073810 -0.106935 -0.991523
vn 0.073810 -0.106935 -0.991523
vn 0.073810 -0.106935 -0.991523
vn 0.073810 -0.106935 -0.991523
vn 0.229895 -0.103448 0.967702
vn 0.229895 -0.103448 0.967702
vn 0.229895 -0.103448 0.967702
vn 0.229895 -0.103448 0.967702
vn -0.100937 -0.930514 0.352072
vn -0.100937 -0.930514 0.352072
vn -0.100937 -0.930514 0.352072
vn -0.100944 -0.942747 -0.317866
vn -0.100944 -0.942747 -0.317866
vn -0.100944 -0.942747 -0.317866
vn -0.141439 -0.904007 0.403443
vn -0.136319 -0.904771 0.403492
vn 0.041469 0.328869 -0.943464
vn 0.041469 0.328869 -0.943465
vn 0.013207 -0.371607 -0.928296
vn 0.013207 -0.371607 -0.928296
vn 0.013207 -0.371607 -0.928296
vn 0.016714 -0.908979 -0.416506
vn 0.016714 -0.908979 -0.416506
vn 0.016714 -0.908979 -0.416506
vn 0.092908 0.918545 0.384242
vn 0.092908 0.918545 0.384242
vn 0.092908 0.918545 0.384242
vn 0.067725 0.938096 -0.339691
vn 0.067725 0.938096 -0.339691
vn 0.067725 0.938096 -0.339691
vn -0.030608 0.455680 -0.889617
vn -0.030608 0.455680 -0.889617
vn -0.056887 -0.361971 -0.930452
vn -0.056887 -0.361971 -0.930452
vn -0.028042 -0.925531 -0.377631
vn -0.028042 -0.925532 -0.377631
vn -0.028042 -0.925531 -0.377631
vn 0.035969 -0.922064 0.385363
vn 0.035969 -0.922064 0.385363
vn 0.035969 -0.922064 0.385363
vn 0.122533 -0.447796 0.885700
vn 0.122533 -0.447796 0.885700
vn 0.160295 0.446475 0.880321
vn 0.160295 0.446475 0.880321
vn 0.133422 0.906568 0.400416
vn 0.133422 0.906568 0.400416
vn 0.133422 0.906568 0.400416
vn 0.060675 0.896639 -0.438585
vn 0.060675 0.896639 -0.438585
vn 0.060675 0.896639 -0.438585
vn 0.079494 0.377672 0.922521
vn 0.079494 0.377672 0.922521
vn 0.034175 -0.409504 0.911668
vn 0.034175 -0.409504 0.911668
s 1
g pCylinder1
usemtl initialShadingGroup
f 75/96/1 76/97/2 16/32/3 15/31/4
s 2
f 74/95/5 75/96/6 15/31/7 18/34/8
s 3
f 51/71/9 45/64/10 74/95/11 81/103/12
s 4
f 49/69/13 51/71/14 81/103/15 78/100/16
s 5
f 19/35/17 94/118/18 95/119/19 21/37/20
s 6
f 76/98/21 77/99/22 24/40/23 16/42/24
s 7
f 67/88/25 68/89/26 8/17/27 7/18/28
s 8
f 68/89/29 69/90/30 9/20/31 8/17/32
s 9
f 42/61/33 44/63/34 73/94/35 69/90/36
s 10
f 44/63/37 37/55/38 70/91/39 73/94/40
s 11
f 70/91/41 71/92/42 11/24/43 10/22/44
s 12
f 87/110/45 88/111/46 43/62/47 38/56/48
s 13
f 88/111/49 89/112/50 39/57/51 43/62/52
s 14
f 66/86/53 67/87/54 7/28/55 12/26/56
s off
f 1/1/57 13/29/58 14/30/59 2/2/60
f 8/9/61 15/31/62 16/32/63 7/8/64
f 2/2/65 14/30/66 17/33/67 3/3/68
f 9/10/69 18/34/70 15/31/71 8/9/72
f 3/3/73 17/33/74 62/82/75 65/85/76
f 10/11/77 20/36/78 33/51/79 34/52/80
f 4/4/81 19/35/82 21/37/83 5/5/84
f 11/12/85 22/38/86 20/36/87 10/11/88
f 5/5/89 21/37/90 23/39/91 6/6/92
f 12/13/93 59/79/94 24/40/95 28/46/96 25/43/97
f 7/14/98 16/42/99 24/40/100 59/79/101 12/13/102
s 15
f 48/68/103 52/72/104 80/102/105 77/99/106
s 16
f 52/72/107 50/70/108 79/101/109 80/102/110
s off
f 27/45/111 30/48/112 22/38/113 11/12/114
f 26/44/115 25/43/116 28/46/117 29/47/118
f 27/45/119 26/44/120 29/47/121 30/48/122
f 36/54/123 31/49/124 18/34/125 9/10/126
f 32/50/127 31/49/128 36/54/129 35/53/130
f 33/51/131 32/50/132 35/53/133 34/52/134
s 11
f 86/109/135 87/110/136 38/56/137 37/55/138
s 14
f 89/112/139 82/104/140 40/58/141 39/57/142
s 7
f 82/105/143 83/106/144 41/60/145 40/59/146
s 8
f 83/106/147 84/107/148 42/61/149 41/60/150
s 13
f 72/93/151 66/86/152 12/26/153 25/43/154 26/44/155
s 12
f 71/92/156 72/93/157 26/44/158 27/45/159 11/24/160
s 2
f 90/113/161 91/114/162 46/65/163 45/64/164
s 1
f 91/114/165 92/115/166 47/66/167 46/65/168
s 5
f 50/70/169 49/69/170 78/100/171 79/101/172
s 4
f 60/80/173 61/81/174 93/117/175 94/118/176 19/35/177
s 3
f 17/33/178 90/113/179 93/117/180 61/81/181 62/82/182
s 16
f 21/37/183 95/119/184 96/120/185 23/39/186
s 15
f 23/39/187 96/120/188 97/121/189 57/77/190 56/76/191
s 6
f 58/78/192 57/77/193 97/121/194 92/116/195 13/41/196
s off
f 6/6/197 23/39/198 56/76/199 53/73/200
f 55/75/201 58/78/202 13/41/203 1/7/204
f 54/74/205 53/73/206 56/76/207 57/77/208
f 55/75/209 54/74/210 57/77/211 58/78/212
s 10
f 85/108/213 86/109/214 37/55/38 44/63/37
s 9
f 84/107/215 85/108/216 44/63/34 42/61/33
s off
f 63/83/217 60/80/218 19/35/219 4/4/220
f 61/81/221 60/80/222 63/83/223 64/84/224
f 62/82/225 61/81/226 64/84/227 65/85/228
s 14
f 39/57/142 40/58/141 67/87/54 66/86/53
s 7
f 40/59/146 41/60/145 68/89/26 67/88/25
s 8
f 41/60/150 42/61/149 69/90/30 68/89/29
s 11
f 37/55/138 38/56/137 71/92/42 70/91/41
s 12
f 38/56/48 43/62/47 72/93/157 71/92/156
s 13
f 43/62/52 39/57/51 66/86/152 72/93/151
s 10
f 73/94/40 70/91/39 10/22/229 34/52/230 35/53/231
s 9
f 69/90/36 73/94/35 35/53/232 36/54/233 9/20/234
s 2
f 45/64/164 46/65/163 75/96/6 74/95/5
s 1
f 46/65/168 47/66/167 76/97/2 75/96/1
s 6
f 47/67/235 48/68/236 77/99/22 76/98/21
s 5
f 79/101/172 78/100/171 20/36/237 22/38/238
s 16
f 80/102/110 79/101/109 22/38/239 30/48/240 29/47/241
s 15
f 77/99/106 80/102/105 29/47/242 28/46/243 24/40/244
s 3
f 81/103/12 74/95/11 18/34/245 31/49/246 32/50/247
s 4
f 78/100/16 81/103/15 32/50/248 33/51/249 20/36/250
s 7
f 1/15/251 2/16/252 83/106/144 82/105/143
s 8
f 2/16/253 3/19/254 84/107/148 83/106/147
s 9
f 3/19/255 65/85/256 64/84/257 85/108/216 84/107/215
s 10
f 64/84/258 63/83/259 4/21/260 86/109/214 85/108/213
s 11
f 4/21/261 5/23/262 87/110/136 86/109/135
s 12
f 5/23/263 6/25/264 88/111/46 87/110/45
s 13
f 6/25/265 53/73/266 54/74/267 89/112/50 88/111/49
s 14
f 54/74/268 55/75/269 1/27/270 82/104/140 89/112/139
s 2
f 14/30/271 91/114/162 90/113/161 17/33/272
s 1
f 13/29/273 92/115/166 91/114/165 14/30/274
s 3
f 93/117/180 90/113/179 45/64/10 51/71/9
s 4
f 94/118/176 93/117/175 51/71/14 49/69/13
s 5
f 95/119/19 94/118/18 49/69/170 50/70/169
s 16
f 96/120/185 95/119/184 50/70/108 52/72/107
s 15
f 97/121/189 96/120/188 52/72/104 48/68/103
s 6
f 92/116/195 97/121/194 48/68/236 47/67/235
g default
v -0.448850 0.971694 0.163186
v -0.550473 0.979782 0.203820
v -0.546369 0.954909 0.310629
v -0.442208 0.931449 0.336007
v -0.381939 0.941822 0.244883
v -0.427005 1.100129 0.192255
v -0.528628 1.108217 0.232889
v -0.524523 1.083344 0.339698
v -0.420363 1.059883 0.365077
v -0.360093 1.070257 0.273952
v -0.345030 1.196318 0.201852
v -0.419916 1.244076 0.239947
v -0.423629 1.223434 0.334287
v -0.351038 1.162920 0.354497
v -0.302461 1.146162 0.272648
v -0.220296 1.279842 0.216318
v -0.272898 1.328344 0.247538
v -0.239387 1.282143 0.280848
v -0.277809 1.312714 0.323864
v -0.228243 1.254551 0.339815
v -0.192698 1.234236 0.273348
vt 0.375000 0.312500
vt 0.425000 0.312500
vt 0.475000 0.312500
vt 0.525000 0.312500
vt 0.575000 0.312500
vt 0.625000 0.312500
vt 0.375000 0.688440
vt 0.425000 0.688440
vt 0.475000 0.688440
vt 0.525000 0.688440
vt 0.575000 0.688440
vt 0.625000 0.688440
vt 0.548284 0.695147
vt 0.373591 0.751909
vt 0.373591 0.935591
vt 0.548284 0.992353
vt 0.656250 0.843750
vt 0.500000 0.837500
vt 0.548284 0.992353
vt 0.373591 0.935591
vt 0.373591 0.751909
vt 0.548284 0.695147
vt 0.656250 0.843750
vt 0.548284 0.992353
vt 0.373591 0.935591
vt 0.373591 0.751909
vt 0.548284 0.695147
vt 0.656250 0.843750
vn -0.340204 0.262254 -0.903041
vn -0.340204 0.262254 -0.903041
vn -0.340204 0.262254 -0.903041
vn -0.340204 0.262254 -0.903041
vn -0.985808 0.151134 0.073080
vn -0.985808 0.151134 0.073080
vn -0.985808 0.151134 0.073080
vn -0.985808 0.151134 0.073080
vn -0.269059 -0.168848 0.948207
vn -0.269059 -0.168848 0.948207
vn -0.269059 -0.168848 0.948207
vn -0.269059 -0.168848 0.948207
vn 0.819521 -0.255488 0.512944
vn 0.819521 -0.255488 0.512944
vn 0.819521 -0.255488 0.512944
vn 0.819521 -0.255488 0.512944
vn 0.775550 0.010948 -0.631191
vn 0.775550 0.010948 -0.631191
vn 0.775550 0.010948 -0.631191
vn 0.775550 0.010948 -0.631191
vn 0.720812 0.666733 0.189468
vn 0.726732 0.661250 0.186034
vn 0.722969 0.666226 0.182918
vn 0.727281 0.662676 0.178670
vn 0.721586 0.669360 0.176839
vn 0.718186 0.671158 0.183726
vn -0.302461 0.313160 -0.900249
vn -0.302461 0.313160 -0.900249
vn -0.302461 0.313160 -0.900249
vn -0.302461 0.313160 -0.900249
vn -0.789210 0.598649 0.136995
vn -0.789210 0.598649 0.136995
vn -0.789210 0.598649 0.136995
vn -0.789210 0.598649 0.136995
vn -0.164973 0.179287 0.969866
vn -0.164973 0.179287 0.969866
vn -0.164973 0.179287 0.969866
vn -0.164972 0.179287 0.969866
vn 0.731043 -0.486927 0.477993
vn 0.731043 -0.486927 0.477993
vn 0.731043 -0.486927 0.477993
vn 0.731043 -0.486927 0.477993
vn 0.595700 -0.451227 -0.664482
vn 0.595700 -0.451227 -0.664482
vn 0.595700 -0.451227 -0.664482
vn 0.595700 -0.451227 -0.664482
vn -0.179034 0.407666 -0.895408
vn -0.179034 0.407666 -0.895408
vn -0.179034 0.407666 -0.895408
vn -0.179034 0.407666 -0.895408
vn -0.502528 0.850487 0.155363
vn -0.502528 0.850487 0.155363
vn -0.502528 0.850487 0.155363
vn -0.502528 0.850487 0.155363
vn -0.064093 0.229925 0.971096
vn -0.064093 0.229925 0.971096
vn -0.064093 0.229925 0.971096
vn -0.064093 0.229925 0.971096
vn 0.553281 -0.678397 0.483381
vn 0.553281 -0.678397 0.483381
vn 0.553281 -0.678397 0.483381
vn 0.553281 -0.678397 0.483381
vn 0.461075 -0.569974 -0.680103
vn 0.461075 -0.569974 -0.680103
vn 0.461075 -0.569974 -0.680103
vn 0.461075 -0.569974 -0.680103
s off
g pCylinder2
usemtl initialShadingGroup
f 98/122/275 99/123/276 104/129/277 103/128/278
f 99/123/279 100/124/280 105/130/281 104/129/282
f 100/124/283 101/125/284 106/131/285 105/130/286
f 101/125/287 102/126/288 107/132/289 106/131/290
f 102/126/291 98/127/292 103/133/293 107/132/294
s 1
f 113/145/295 114/146/296 115/139/297
f 114/146/296 116/147/298 115/139/297
f 116/147/298 117/148/299 115/139/297
f 117/148/299 118/149/300 115/139/297
f 118/149/300 113/145/295 115/139/297
s off
f 103/137/301 104/136/302 109/141/303 108/140/304
f 104/136/305 105/135/306 110/142/307 109/141/308
f 105/135/309 106/134/310 111/143/311 110/142/312
f 106/134/313 107/138/314 112/144/315 111/143/316
f 107/138/317 103/137/318 108/140/319 112/144/320
f 108/140/321 109/141/322 114/146/323 113/145/324
f 109/141/325 110/142/326 116/147/327 114/146/328
f 110/142/329 111/143/330 117/148/331 116/147/332
f 111/143/333 112/144/334 118/149/335 117/148/336
f 112/144/337 108/140/338 113/145/339 118/149/340
g default
v 0.843056 0.795989 -0.189573
v 0.711436 0.865842 -0.074774
v 0.845778 0.930307 0.040026
v 0.977398 0.860453 -0.074774
v 0.832743 1.080555 -0.285956
v 0.814774 1.119540 -0.219965
v 0.869515 1.162327 -0.144960
v 0.922930 1.111650 -0.229703
v 0.857852 1.118667 -0.219965
v 0.842160 0.964342 -0.198496
v 0.767366 1.018761 -0.108100
v 0.861907 1.072387 -0.013198
v 0.950164 0.986052 -0.152238
vt 0.375000 0.312500
vt 0.437500 0.312500
vt 0.500000 0.312500
vt 0.562500 0.312500
vt 0.625000 0.312500
vt 0.375000 0.688440
vt 0.437500 0.688440
vt 0.500000 0.688440
vt 0.562500 0.688440
vt 0.625000 0.688440
vt 0.500000 0.687500
vt 0.343750 0.843750
vt 0.500000 1.000000
vt 0.656250 0.843750
vt 0.500000 0.837500
vt 0.625000 0.500470
vt 0.375000 0.500470
vt 0.437500 0.500470
vt 0.500000 0.500470
vt 0.562500 0.500470
vn -0.776077 -0.052548 -0.628445
vn -0.772445 -0.048629 -0.633217
vn -0.890867 -0.212726 -0.401377
vn -0.890867 -0.212726 -0.401377
vn -0.742133 0.453916 0.493152
vn -0.742949 0.462643 0.483723
vn -0.737049 0.602855 0.305491
vn -0.737049 0.602855 0.305491
vn 0.835280 0.327938 0.441320
vn 0.836761 0.330084 0.436893
vn 0.868093 0.384187 0.314348
vn 0.868093 0.384187 0.314348
vn 0.562391 -0.269130 -0.781847
vn 0.557288 -0.285723 -0.779610
vn 0.502423 -0.433917 -0.747855
vn 0.502423 -0.433917 -0.747855
vn 0.017481 0.862927 -0.505026
vn 0.017480 0.862928 -0.505025
vn 0.017482 0.862927 -0.505025
vn 0.017482 0.862928 -0.505025
vn 0.017483 0.862927 -0.505026
vn -0.697117 0.025190 -0.716514
vn -0.697117 0.025190 -0.716514
vn -0.724544 0.351007 0.593152
vn -0.724544 0.351007 0.593152
vn 0.804400 0.287260 0.520021
vn 0.804400 0.287260 0.520021
vn 0.587487 -0.175911 -0.789882
vn 0.587487 -0.175911 -0.789882
s 1
g pCylinder3
usemtl initialShadingGroup
f 128/166/341 129/167/342 124/156/343 123/155/344
s 2
f 129/167/345 130/168/346 125/157/347 124/156/348
s 3
f 130/168/349 131/169/350 126/158/351 125/157/352
s 4
f 131/169/353 128/165/354 123/159/355 126/158/356
s 5
f 123/162/357 124/161/358 127/164/359
f 124/161/358 125/160/360 127/164/359
f 125/160/360 126/163/361 127/164/359
f 126/163/361 123/162/357 127/164/359
s 1
f 119/150/362 120/151/363 129/167/342 128/166/341
s 2
f 120/151/364 121/152/365 130/168/346 129/167/345
s 3
f 121/152/366 122/153/367 131/169/350 130/168/349
s 4
f 122/153/368 119/154/369 128/165/354 131/169/353
